<svg xmlns="http://www.w3.org/2000/svg" xmlns:xlink="http://www.w3.org/1999/xlink" width="75" height="80" viewBox="0 0 75 80">
  <defs>
    <clipPath id="clip-path">
      <rect id="Rect치ngulo_403590" data-name="Rect치ngulo 403590" width="51.051" height="55.745" fill="#eacf5a"/>
    </clipPath>
  </defs>
  <g id="Grupo_1106892" data-name="Grupo 1106892" transform="translate(-1181.068 -9958)">
    <path id="Rect치ngulo_402870" data-name="Rect치ngulo 402870" d="M37.5,0h0A37.5,37.5,0,0,1,75,37.5V80a0,0,0,0,1,0,0H0a0,0,0,0,1,0,0V37.5A37.5,37.5,0,0,1,37.5,0Z" transform="translate(1181.068 9958)" fill="#087854"/>
    <g id="Grupo_1106860" data-name="Grupo 1106860" transform="translate(1192.543 9970.128)">
      <g id="Grupo_1106859" data-name="Grupo 1106859" clip-path="url(#clip-path)">
        <path id="Trazado_912808" data-name="Trazado 912808" d="M42.365,48.777c-1.871,4.886-4.787,7.115-9.035,6.96-3.837-.14-6.816-2.65-8.168-6.96H17.271c-.907,0-1.814.018-2.72-.006a4.057,4.057,0,0,1-3.768-2.644,3.873,3.873,0,0,1,1.126-4.455,15.168,15.168,0,0,0,4.925-7.654,23.758,23.758,0,0,0,.618-4.61c.136-2.75-.055-5.526.225-8.257A16.043,16.043,0,0,1,30.968,7.223c.814-.132,1.108-.371,1.064-1.21-.07-1.339-.03-2.684-.015-4.026C32.031.776,32.685.023,33.7,0A1.806,1.806,0,0,1,35.5,2.019c.02,1.378.034,2.758-.007,4.135-.02.66.155.93.865,1.043A16.113,16.113,0,0,1,49.917,22.064c.145,2.386.091,4.787.081,7.18a15.658,15.658,0,0,0,5.381,12.24,4.045,4.045,0,0,1,1.295,4.7,4.089,4.089,0,0,1-4.125,2.593c-3.371.007-6.743,0-10.183,0M33.78,45.286c6.167,0,12.333.007,18.5-.018a3.6,3.6,0,0,0,1.115-.4,3.116,3.116,0,0,0-.477-.891A19.176,19.176,0,0,1,46.5,29.064c.014-2.322.066-4.65-.083-6.964a12.708,12.708,0,0,0-25.243-.751,80.232,80.232,0,0,0-.206,8.258,18.992,18.992,0,0,1-6.237,14.215,5.208,5.208,0,0,0-.674,1.025,4.106,4.106,0,0,0,1.223.419c6.166.027,12.333.019,18.5.019m4.733,3.575H28.948a5.042,5.042,0,0,0,4.876,3.39,4.944,4.944,0,0,0,4.689-3.39" transform="translate(-8.221 0)" fill="#eacf5a"/>
        <path id="Trazado_912809" data-name="Trazado 912809" d="M193.953,31.123c0,.641.011.968,0,1.293a1.762,1.762,0,0,1-1.741,1.832,1.876,1.876,0,0,1-1.752-1.861,56.089,56.089,0,0,0-.83-6.219,23.334,23.334,0,0,0-5.962-10.8,6.575,6.575,0,0,1-.646-.731,1.612,1.612,0,0,1,.193-2.261,1.631,1.631,0,0,1,2.269-.116,3.564,3.564,0,0,1,.474.446,28.078,28.078,0,0,1,8,18.422" transform="translate(-142.906 -9.274)" fill="#eacf5a"/>
        <path id="Trazado_912810" data-name="Trazado 912810" d="M.038,31a28.009,28.009,0,0,1,7.7-18,5.34,5.34,0,0,1,.786-.749,1.628,1.628,0,0,1,2.188.121,1.706,1.706,0,0,1,.233,2.271c-.321.435-.73.8-1.089,1.212A24.54,24.54,0,0,0,3.5,31.657c-.066,1.839-.7,2.694-1.89,2.606C.439,34.177-.075,33.305.008,31.541c.009-.181.02-.362.03-.544" transform="translate(0 -9.295)" fill="#eacf5a"/>
      </g>
    </g>
  </g>
</svg>
