<svg xmlns="http://www.w3.org/2000/svg" xmlns:xlink="http://www.w3.org/1999/xlink" width="54.535" height="65.988" viewBox="0 0 54.535 65.988">
  <defs>
    <clipPath id="clip-path">
      <rect id="Rectángulo_403581" data-name="Rectángulo 403581" width="54.535" height="65.989" fill="#087854" stroke="#087854" stroke-width="0.5"/>
    </clipPath>
  </defs>
  <g id="Grupo_1106893" data-name="Grupo 1106893" transform="translate(-948.018 -10328.721)">
    <g id="Grupo_1106854" data-name="Grupo 1106854" transform="translate(948.018 10328.721)">
      <g id="Grupo_1106853" data-name="Grupo 1106853" clip-path="url(#clip-path)">
        <path id="Trazado_912778" data-name="Trazado 912778" d="M39.918,115.1c-2.6,4.4-6.63,7.708-11.276,10.365a2.377,2.377,0,0,1-2.684-.015,30.073,30.073,0,0,1-11.507-10.767c-1.982,1.373-3.867.767-5.768-.03-1.707-.716-3.468-1.308-5.163-2.05-3.1-1.355-4.34-3.819-2.959-6.9,2.492-5.553,5.19-11.025,8.05-16.4,1.694-3.184,4.736-4.546,8.312-4.564,6.689-.032,13.379.04,20.068-.038a10.075,10.075,0,0,1,9.835,5.852c2.183,4.3,4.264,8.661,6.361,13.008a16.523,16.523,0,0,1,1.113,2.849c.7,2.6-.144,4.723-2.579,5.856a59.6,59.6,0,0,1-7.9,3.048c-1.1.333-2.443-.112-3.9-.219M27.438,86.689v-.113c-3.075,0-6.153.091-9.223-.022a8.909,8.909,0,0,0-9.108,5.535c-2.09,4.4-4.259,8.767-6.385,13.152a8.437,8.437,0,0,0-.473,1.227c-.658,2.163-.1,3.483,1.986,4.368,2.152.913,4.329,1.775,6.53,2.56a2.654,2.654,0,0,0,3.662-1.886,2.989,2.989,0,0,0-1.8-3.95c-1.547-.714-3.17-1.268-4.692-2.03-.411-.206-.574-.907-.851-1.38.5-.118,1.076-.459,1.481-.315a52.567,52.567,0,0,1,5,2.06,5.154,5.154,0,0,1,2.686,6.283,3,3,0,0,0,.253,2.1,25.924,25.924,0,0,0,10.156,9.245,1.589,1.589,0,0,0,1.317-.012,25.877,25.877,0,0,0,10.222-9.38,2.618,2.618,0,0,0,.2-1.847,5.13,5.13,0,0,1,2.813-6.462,50.439,50.439,0,0,1,4.725-1.955c.443-.154,1.06.192,1.6.308-.289.467-.468,1.157-.886,1.363-1.614.8-3.34,1.366-4.955,2.16a3.035,3.035,0,0,0-1.341,4.25c.712,1.524,2,2,3.806,1.328,1.782-.66,3.548-1.363,5.315-2.061,3.3-1.3,3.925-2.761,2.4-6.009-2.033-4.321-4.151-8.6-6.247-12.894-.3-.612-.665-1.191-1.022-1.773a7.231,7.231,0,0,0-6.189-3.835c-3.657-.082-7.317-.02-10.975-.02" transform="translate(0 -59.885)" fill="#087854" stroke="#087854" stroke-width="0.5"/>
        <path id="Trazado_912779" data-name="Trazado 912779" d="M54.71,11.211a11.287,11.287,0,0,1,22.575.073,11.288,11.288,0,0,1-22.575-.073M66.077,1.946a9.271,9.271,0,1,0,9.287,9.318,9.3,9.3,0,0,0-9.287-9.318" transform="translate(-38.679 0)" fill="#087854" stroke="#087854" stroke-width="0.5"/>
        <path id="Trazado_912780" data-name="Trazado 912780" d="M67.254,145c2.265-2.27,4.269-4.254,6.244-6.268.834-.851,1.883-1.7,2.921-.949a11.47,11.47,0,0,1,2.7,3.253c.191.3-.256,1.233-.651,1.641q-4.674,4.837-9.455,9.571c-1.161,1.156-1.981,1.159-3.145.03q-2.833-2.75-5.585-5.583a2.048,2.048,0,0,1-.05-3.212,18.632,18.632,0,0,1,1.332-1.355,2.006,2.006,0,0,1,3.2.039c.86.854,1.607,1.822,2.486,2.832m8.073-5.472c-2.336,2.363-4.578,4.6-6.784,6.878-.781.8-1.45.84-2.211,0-.943-1.044-1.93-2.049-2.929-3.1l-1.678,1.74,5.746,5.752,9.8-9.577-1.945-1.687" transform="translate(-42.055 -97.206)" fill="#087854" stroke="#087854" stroke-width="0.5"/>
        <path id="Trazado_912781" data-name="Trazado 912781" d="M70.533,111.893a10.9,10.9,0,0,1-.046,2.334c-.109.483-.644.869-.988,1.3-.3-.42-.821-.818-.866-1.263A26.173,26.173,0,0,1,68.6,110.6a1.18,1.18,0,0,0-.958-1.365c-4.11-1.388-8.192-2.86-12.3-4.249a2.792,2.792,0,0,0-1.67.007c-4.064,1.372-8.1,2.831-12.165,4.2a1.328,1.328,0,0,0-1.1,1.558,23.547,23.547,0,0,1-.03,3.657c-.038.39-.571.733-.878,1.1-.331-.342-.927-.67-.947-1.029a45.468,45.468,0,0,1,0-5.414,1.785,1.785,0,0,1,1.055-1.168q7.015-2.531,14.085-4.908a3.326,3.326,0,0,1,1.962.115c4.39,1.474,8.744,3.058,13.145,4.5,1.354.443,1.935,1.136,1.747,2.539a13.7,13.7,0,0,0-.014,1.756" transform="translate(-27.198 -72.737)" fill="#087854" stroke="#087854" stroke-width="0.5"/>
      </g>
    </g>
  </g>
</svg>
