<svg xmlns="http://www.w3.org/2000/svg" xmlns:xlink="http://www.w3.org/1999/xlink" width="75" height="80" viewBox="0 0 75 80">
  <defs>
    <clipPath id="clip-path">
      <rect id="Rect치ngulo_403592" data-name="Rect치ngulo 403592" width="57.265" height="56.331" fill="#eacf5a"/>
    </clipPath>
  </defs>
  <g id="Grupo_1106884" data-name="Grupo 1106884" transform="translate(-414.018 -1161)">
    <path id="Rect치ngulo_402870" data-name="Rect치ngulo 402870" d="M37.5,0h0A37.5,37.5,0,0,1,75,37.5V80a0,0,0,0,1,0,0H0a0,0,0,0,1,0,0V37.5A37.5,37.5,0,0,1,37.5,0Z" transform="translate(414.018 1161)" fill="#087854"/>
    <g id="Grupo_1106864" data-name="Grupo 1106864" transform="translate(422.463 1177.742)">
      <g id="Grupo_1106863" data-name="Grupo 1106863" clip-path="url(#clip-path)">
        <path id="Trazado_912815" data-name="Trazado 912815" d="M57.911,110.259a9.793,9.793,0,0,1-4.678-8.648A9.382,9.382,0,0,1,56.3,94.755a9.774,9.774,0,0,1,13.865.527c3.277,3.555,4.172,10.565-2.239,15.091l2.992,1.147a1.619,1.619,0,0,0,.3-2.107,1.238,1.238,0,0,1,.341-1.736,11.612,11.612,0,0,0,1.221-1.223,1.457,1.457,0,0,1,2.018-.416,2.347,2.347,0,0,0,2.973-1.241,1.492,1.492,0,0,1,1.736-1.136,7.223,7.223,0,0,0,1.382,0,1.6,1.6,0,0,1,1.914,1.218,2.374,2.374,0,0,0,2.914,1.175,1.443,1.443,0,0,1,2.02.387,10.613,10.613,0,0,0,1.221,1.223,1.374,1.374,0,0,1,.355,1.838,2.343,2.343,0,0,0,1.258,3.077,1.408,1.408,0,0,1,1.065,1.65,9.366,9.366,0,0,0,0,1.613,1.458,1.458,0,0,1-1.149,1.711,2.346,2.346,0,0,0-1.184,3.018,1.42,1.42,0,0,1-.409,1.925,9.663,9.663,0,0,0-1.139,1.142,1.449,1.449,0,0,1-2.015.42,2.437,2.437,0,0,0-2.992,1.237,3.01,3.01,0,0,1-2.834,1.85c-11.3.07-22.6.046-33.9.036-1.221,0-1.495-.416-1.2-1.982a18.2,18.2,0,0,1,11.512-14.19c.495-.206,1.009-.366,1.512-.552.022-.008.026-.064.074-.2m-2.829-8.345a7.884,7.884,0,1,0,7.853-7.954,7.878,7.878,0,0,0-7.853,7.954m-8.31,23.332H61.937c-1.187-1.34-2.213-2.581-3.332-3.732a2.1,2.1,0,0,1-.546-2.467c.821-2.3,1.5-4.654,2.237-7.007-5.552-.424-12.879,6.778-13.526,13.206M65.606,111.99c.768,2.44,1.492,4.85,2.3,7.232a1.82,1.82,0,0,1-.417,2.08c-1.174,1.242-2.273,2.554-3.525,3.976H79.116c-.771-7.2-7.765-12.942-13.51-13.289m24.081,3.874c.222-.988.188-1.72-.93-2.029-.316-.088-.576-.564-.757-.916a7.684,7.684,0,0,1-.675-1.7,12.913,12.913,0,0,1-.111-1.614,3.865,3.865,0,0,0-.254-1.269c-.272-.557-.736-.405-1.267-.266a3.5,3.5,0,0,1-1.612-.084,4.8,4.8,0,0,1-1.475-.627,15.149,15.149,0,0,1-1.308-1.118c-.312-.256-.664-.676-.979-.66-.378.02-.754.4-1.1.671-.45.353-.831.8-1.307,1.11a4.769,4.769,0,0,1-1.473.632,3.371,3.371,0,0,1-1.611.071c-.544-.156-1-.261-1.266.282a3.872,3.872,0,0,0-.219,1.29,11.1,11.1,0,0,1-.1,1.506,7.669,7.669,0,0,1-.6,1.345l1.788,1.257c1.52-3.5,3.966-5.077,6.907-4.487a5.875,5.875,0,0,1,4.794,5.579,5.784,5.784,0,0,1-1.179,3.769,6.306,6.306,0,0,1-4.99,2.413l.932,2.932c.731-.467,1.44-.941,2.171-1.377a4.074,4.074,0,0,1,1.148-.52,2.782,2.782,0,0,1,1.407-.058,1.137,1.137,0,0,0,1.409-.216c.518-.507.372-.909.141-1.422-.105-.234-.246-.6-.144-.758.846-1.306.545-3.428,2.659-3.733m-5.411-.755a4.028,4.028,0,0,0-3.26-4.031,4.069,4.069,0,0,0-4.524,2.554,2.143,2.143,0,0,0,.442,2.618,6.467,6.467,0,0,1,1.311,1.737,2.077,2.077,0,0,0,2.2,1.1,4.021,4.021,0,0,0,3.834-3.976M62.96,123.593c1.015-1.148,1.977-2.185,2.865-3.282a1.292,1.292,0,0,0,.127-1.029c-.7-2.309-1.436-4.609-2.216-6.892-.1-.306-.532-.707-.8-.7a1.185,1.185,0,0,0-.787.727c-.768,2.288-1.486,4.593-2.186,6.9a1.179,1.179,0,0,0,.065.928c.917,1.117,1.9,2.181,2.928,3.344" transform="translate(-34.385 -70.862)" fill="#eacf5a"/>
        <path id="Trazado_912816" data-name="Trazado 912816" d="M172.933,19.442A9.721,9.721,0,1,1,182.674,9.7a9.721,9.721,0,0,1-9.741,9.743m-.063-1.857a7.866,7.866,0,1,0-7.829-7.863,7.854,7.854,0,0,0,7.829,7.863" transform="translate(-125.523 -0.001)" fill="#eacf5a"/>
        <path id="Trazado_912817" data-name="Trazado 912817" d="M19.449,10.5A9.725,9.725,0,1,1,9.755.732,9.713,9.713,0,0,1,19.449,10.5M9.779,2.589a7.87,7.87,0,1,0,7.813,7.962A7.848,7.848,0,0,0,9.779,2.589" transform="translate(0 -0.563)" fill="#eacf5a"/>
        <path id="Trazado_912818" data-name="Trazado 912818" d="M39.975,100.076c1.824,0,3.581.009,5.338,0,.712-.005,1.4.085,1.386.969-.015.807-.665.9-1.339.894-1.96-.015-3.921-.036-5.88.007-1.058.023-1.436-.442-1.425-1.455.028-2.69.012-5.381.008-8.071,0-.665.1-1.306.922-1.323s.939.616.937,1.288q-.011,3.229,0,6.457c0,.374.031.748.053,1.239" transform="translate(-29.272 -70.068)" fill="#eacf5a"/>
        <path id="Trazado_912819" data-name="Trazado 912819" d="M178.913,100.024c0-2.435,0-4.7,0-6.959a2.482,2.482,0,0,1,.037-1.022,5.306,5.306,0,0,1,.874-1.019c.313.355.873.693.9,1.067.1,1.566.049,3.143.05,4.717,0,1.266-.011,2.533,0,3.8.008.842-.329,1.286-1.227,1.277-2.072-.021-4.144-.011-6.216,0-.659,0-1.272-.239-1.125-.934a1.557,1.557,0,0,1,1.169-.879c1.791-.1,3.589-.041,5.537-.041" transform="translate(-132.445 -70.015)" fill="#eacf5a"/>
        <path id="Trazado_912820" data-name="Trazado 912820" d="M186.22,26.427c-2.927,2.4-3.931,2.689-5.136,1.514a2.234,2.234,0,0,1-.563-2.737,18.875,18.875,0,0,1,2.089-2.617,11.927,11.927,0,0,1-1.583-1.227,2.5,2.5,0,0,1,3.537-3.529c.478.437.882.955,1.413,1.538.6-.577,1.066-1.059,1.564-1.509a2.464,2.464,0,0,1,3.519-.051,2.5,2.5,0,0,1,.009,3.6,18.855,18.855,0,0,1-1.721,1.417c.75.654,1.306,1.062,1.767,1.557a2.5,2.5,0,0,1-3.451,3.607,19.033,19.033,0,0,1-1.443-1.566m-3.363-7.565c-.244.194-.511.3-.561.471a.912.912,0,0,0,.09.732c.441.529.951,1,1.438,1.491,1.215,1.222,1.219,1.407.043,2.587a8.143,8.143,0,0,0-1.118,1.155c-.232.352-.506,1.024-.348,1.22.51.63.92.019,1.294-.336.446-.423.868-.87,1.307-1.3.943-.924,1.208-.92,2.177.031a13.742,13.742,0,0,0,1.4,1.361,3.477,3.477,0,0,0,1.163.327,3.531,3.531,0,0,0-.3-1.257A9.179,9.179,0,0,0,188,23.864c-.8-.7-.733-1.334.028-2.017a12.12,12.12,0,0,0,1.6-1.647c.183-.242.062-.714.08-1.081a7.119,7.119,0,0,0-1,.207c-.164.057-.278.256-.414.392-2.436,2.447-2.013,2.416-4.465-.027-.291-.289-.624-.535-.97-.829" transform="translate(-138.662 -13.147)" fill="#eacf5a"/>
        <path id="Trazado_912821" data-name="Trazado 912821" d="M19.22,24.931c1.162-1.185,2.224-2.3,3.317-3.375a2.5,2.5,0,1,1,3.513,3.5q-2.426,2.466-4.893,4.892a2.555,2.555,0,0,1-3.879.086c-.883-.8-1.722-1.649-2.53-2.524A2.472,2.472,0,0,1,18.2,23.97c.318.273.613.574,1.023.961m-.007,4.17a8.677,8.677,0,0,0,.779-.616c1.529-1.514,3.068-3.017,4.547-4.578.27-.285.278-.82.406-1.24-.423.124-.958.126-1.248.394-1.241,1.145-2.423,2.356-3.6,3.569a1.1,1.1,0,0,1-1.856.008,7.441,7.441,0,0,0-1.154-1.121,2.567,2.567,0,0,0-.984-.192c.049.36-.029.828.169,1.059.674.784,1.439,1.491,2.186,2.211a5.673,5.673,0,0,0,.754.507" transform="translate(-10.774 -15.857)" fill="#eacf5a"/>
      </g>
    </g>
  </g>
</svg>
