<svg xmlns="http://www.w3.org/2000/svg" xmlns:xlink="http://www.w3.org/1999/xlink" width="55.369" height="60.908" viewBox="0 0 55.369 60.908">
  <defs>
    <clipPath id="clip-path">
      <rect id="Rectángulo_403610" data-name="Rectángulo 403610" width="48.193" height="60.908" fill="none"/>
    </clipPath>
  </defs>
  <g id="Grupo_1106891" data-name="Grupo 1106891" transform="translate(-1191.051 -3990.314)">
    <path id="Rectángulo_403553" data-name="Rectángulo 403553" d="M27.685,0h0A27.685,27.685,0,0,1,55.369,27.685V59.061a0,0,0,0,1,0,0H0a0,0,0,0,1,0,0V27.685A27.685,27.685,0,0,1,27.685,0Z" transform="translate(1191.051 3990.315)" fill="#eacf5a"/>
    <g id="Grupo_1106880" data-name="Grupo 1106880" transform="translate(1195.051 3990.314)">
      <path id="Trazado_912959" data-name="Trazado 912959" d="M73.145,103.006l-4.128-4.128v13.459Z" transform="translate(-44.921 -64.357)" fill="#fff"/>
      <path id="Trazado_912960" data-name="Trazado 912960" d="M57.084,103.044l4.166,9.293V98.878Z" transform="translate(-37.154 -64.357)" fill="#43b869"/>
      <g id="Grupo_1106879" data-name="Grupo 1106879">
        <g id="Grupo_1106878" data-name="Grupo 1106878" clip-path="url(#clip-path)">
          <path id="Trazado_912961" data-name="Trazado 912961" d="M56.875,88.817,53.958,85.9v2.919H54A9.2,9.2,0,0,0,58.456,90.4Z" transform="translate(-35.12 -55.909)" fill="#fbd9d3"/>
          <path id="Trazado_912962" data-name="Trazado 912962" d="M53.958,80.4v1.92l2.917,2.919,1.581,1.579c.25.017.5.033.759.033.164,0,.323-.011.487-.021a9.186,9.186,0,0,0,4.714-1.588l.018,0V80.4Z" transform="translate(-35.12 -52.328)" fill="#f9cac1"/>
          <path id="Trazado_912963" data-name="Trazado 912963" d="M72.558,38.938c-2.028,0-4.436,1.779-5.65,3.214l.736,15.256c5.365-.049,9.776-6.657,10.4-12.249a11.654,11.654,0,0,0,.079-1.327v-2.3c-.558-1.455-4.031-2.6-5.567-2.6" transform="translate(-43.549 -25.344)" fill="#f9cac1"/>
          <path id="Trazado_912964" data-name="Trazado 912964" d="M57.406,23.951a29.274,29.274,0,0,1-16.744,5.232c-.721,0-1.433-.036-2.14-.089a10.576,10.576,0,0,0-.085,1.284v3.7a11.744,11.744,0,0,0,.081,1.327c.629,5.619,5.089,12.25,10.5,12.25.034,0,.065,0,.1,0V40.729a1.2,1.2,0,0,0,1.119-1.248V32.649c0-1.263,2.385-2.8,4.451-2.8a6.128,6.128,0,0,1,4.912,1.93v-1.4a10.516,10.516,0,0,0-2.188-6.427" transform="translate(-25.017 -15.589)" fill="#fbd9d3"/>
          <path id="Trazado_912965" data-name="Trazado 912965" d="M54.555,5.925A13.84,13.84,0,0,0,29.382,13.1c-.011.245-.022.5-.022.748v2.769a3.2,3.2,0,0,0,3.184,3.2h.065a11.658,11.658,0,0,1-.081-1.327v-3.7a10.5,10.5,0,0,1,.085-1.284c.707.053,1.42.089,2.14.089A29.266,29.266,0,0,0,51.5,8.357s0,0,0,0a10.518,10.518,0,0,1,2.188,6.427v3.7a11.65,11.65,0,0,1-.079,1.327h.256a3.2,3.2,0,0,0,3.182-3.2V13.843a13.785,13.785,0,0,0-2.491-7.919" transform="translate(-19.11 0)" fill="#087854"/>
          <path id="Trazado_912966" data-name="Trazado 912966" d="M54,94.26h-.045v3.045l1.091,2.733,4.166-4.165A9.2,9.2,0,0,1,54,94.26" transform="translate(-35.12 -61.352)" fill="#fff"/>
          <path id="Trazado_912967" data-name="Trazado 912967" d="M74.258,97.3h-.023V94.259h-.011a9.182,9.182,0,0,1-5.208,1.613L73.145,100Z" transform="translate(-44.922 -61.351)" fill="#43b869"/>
          <path id="Trazado_912968" data-name="Trazado 912968" d="M62.089,94.26H56.421l.022,3.045L51.2,109.331,45.944,97.305l-4.3,4.294,8.648,8.648,1.455,6.657,23.3-.2s-2.613-10.751-3.3-13.181c-1.387-4.908-4.565-9.261-9.663-9.261" transform="translate(-27.106 -61.352)" fill="#087854"/>
          <path id="Trazado_912969" data-name="Trazado 912969" d="M14.611,101.6l4.3-4.294V94.26H13.243c-5.1,0-8.076,4.37-9.232,9.23-.845,3.551-3.9,14.073-3.9,14.073l23.321-2.172Z" transform="translate(-0.072 -61.352)" fill="#ef674f"/>
          <path id="Trazado_912970" data-name="Trazado 912970" d="M52.007,53.094h-.878a1.089,1.089,0,1,0-2.179,0h-.878a1.967,1.967,0,0,1,3.934,0" transform="translate(-31.29 -33.279)" fill="#087854"/>
          <path id="Trazado_912971" data-name="Trazado 912971" d="M82.624,53.094h-.878a1.088,1.088,0,1,0-2.176,0h-.878a1.966,1.966,0,0,1,3.933,0" transform="translate(-51.218 -33.279)" fill="#087854"/>
          <path id="Trazado_912972" data-name="Trazado 912972" d="M69.069,109.368l.524,2.2c0-.045.013-.089.013-.136l12.754-3.915-1.7-.841s-3.477-.116-11.588,2.693" transform="translate(-44.955 -69.432)" fill="#fff"/>
          <path id="Trazado_912973" data-name="Trazado 912973" d="M70.356,110.087l12.458-1.955-.777-.407-13.253,1.939Z" transform="translate(-44.77 -70.115)" fill="#aedfd6"/>
          <path id="Trazado_912974" data-name="Trazado 912974" d="M44.184,109.47l-.524,2.2c0-.045-.013-.088-.013-.135l-12.754-3.913,1.7-.842s3.477-.115,11.588,2.693" transform="translate(-20.108 -69.498)" fill="#fff"/>
          <path id="Trazado_912975" data-name="Trazado 912975" d="M85.745,108.9v19.067L73.286,129.92V110.852Z" transform="translate(-47.7 -70.88)" fill="#96d5ca"/>
          <path id="Trazado_912976" data-name="Trazado 912976" d="M41.506,110.852v19.2c0-.045-.014-.09-.014-.135l-12.431-1.953V108.9Z" transform="translate(-18.916 -70.88)" fill="#a2dad0"/>
          <path id="Trazado_912977" data-name="Trazado 912977" d="M31.817,125.3l10.276,1.5V116.435l-10.276-1.5Z" transform="translate(-20.709 -74.81)" fill="#aedfd6"/>
          <path id="Trazado_912978" data-name="Trazado 912978" d="M78.788,121.132l8.7-1.366v-.875l-8.7,1.368Z" transform="translate(-51.281 -77.384)" fill="#ef674f"/>
          <path id="Trazado_912979" data-name="Trazado 912979" d="M78.788,126.14l8.7-1.367V123.9l-8.7,1.367Z" transform="translate(-51.281 -80.643)" fill="#ef674f"/>
          <path id="Trazado_912980" data-name="Trazado 912980" d="M78.788,138.722l8.7-1.367v-8.222l-8.7,1.367Z" transform="translate(-51.281 -84.05)" fill="#eed776"/>
          <path id="Trazado_912981" data-name="Trazado 912981" d="M78.788,158.152l8.7-1.367v-.874l-8.7,1.366Z" transform="translate(-51.281 -101.479)" fill="#ef674f"/>
          <path id="Trazado_912982" data-name="Trazado 912982" d="M34.419,119.555l8.7,1.193v-.874l-8.7-1.194Z" transform="translate(-22.403 -77.246)" fill="#087854"/>
          <path id="Trazado_912983" data-name="Trazado 912983" d="M34.419,124.56l8.7,1.2v-.874l-8.7-1.2Z" transform="translate(-22.403 -80.504)" fill="#087854"/>
          <path id="Trazado_912984" data-name="Trazado 912984" d="M34.419,129.565l8.7,1.2v-.873l-8.7-1.2Z" transform="translate(-22.403 -83.762)" fill="#087854"/>
          <path id="Trazado_912985" data-name="Trazado 912985" d="M34.419,134.572l8.7,1.194v-.875l-8.7-1.194Z" transform="translate(-22.403 -87.021)" fill="#087854"/>
          <path id="Trazado_912986" data-name="Trazado 912986" d="M34.419,139.577l8.7,1.2V139.9l-8.7-1.2Z" transform="translate(-22.403 -90.279)" fill="#087854"/>
          <path id="Trazado_912987" data-name="Trazado 912987" d="M70.472,114.491v19.068a1.412,1.412,0,0,1-.106.548.349.349,0,0,1-.011.034,1.508,1.508,0,0,1-1.392.927V114.491Z" transform="translate(-44.886 -74.519)" fill="#a2dad0"/>
          <path id="Trazado_912988" data-name="Trazado 912988" d="M64.664,133.559V114.491h1.487v20.577a1.51,1.51,0,0,1-1.509-1.509Z" transform="translate(-42.074 -74.519)" fill="#aedfd6"/>
          <path id="Trazado_912989" data-name="Trazado 912989" d="M41.525,110.148l-12.464-1.916.777-.407,13.258,1.9Z" transform="translate(-18.915 -70.181)" fill="#aedfd6"/>
          <rect id="Rectángulo_403607" data-name="Rectángulo 403607" width="2.996" height="0.649" transform="translate(22.59 39.322)" fill="#087854"/>
          <rect id="Rectángulo_403608" data-name="Rectángulo 403608" width="1.132" height="1.066" transform="translate(22.945 43.503)" fill="#eed776"/>
          <rect id="Rectángulo_403609" data-name="Rectángulo 403609" width="1.132" height="1.066" transform="translate(24.077 43.503)" fill="#eacf5a"/>
          <path id="Trazado_912990" data-name="Trazado 912990" d="M17.291,156.874a3.05,3.05,0,0,1-3.05,3.05H9a3.05,3.05,0,0,1,0-6.1h5.241a3.05,3.05,0,0,1,3.05,3.05" transform="translate(-3.872 -100.12)" fill="#fbd9d3"/>
          <path id="Trazado_912991" data-name="Trazado 912991" d="M4.154,150.666a4.153,4.153,0,1,0,0,8.307H7.1v-8.307Z" transform="translate(0 -98.065)" fill="#087854"/>
          <path id="Trazado_912992" data-name="Trazado 912992" d="M99.6,156.874a3.05,3.05,0,0,0,3.05,3.05H107.9a3.05,3.05,0,1,0,0-6.1h-5.241a3.05,3.05,0,0,0-3.05,3.05" transform="translate(-64.83 -100.12)" fill="#fbd9d3"/>
          <path id="Trazado_912993" data-name="Trazado 912993" d="M120.658,150.666a4.153,4.153,0,1,1,0,8.307h-2.942v-8.307Z" transform="translate(-76.618 -98.065)" fill="#ef674f"/>
        </g>
      </g>
    </g>
  </g>
</svg>
