<svg xmlns="http://www.w3.org/2000/svg" xmlns:xlink="http://www.w3.org/1999/xlink" width="87.792" height="80" viewBox="0 0 87.792 80">
  <defs>
    <clipPath id="clip-path">
      <rect id="Rectángulo_403600" data-name="Rectángulo 403600" width="87.793" height="67.095" fill="none" stroke="#12263f" stroke-width="1"/>
    </clipPath>
  </defs>
  <g id="Grupo_1106887" data-name="Grupo 1106887" transform="translate(-685.018 -9595.379)">
    <path id="Rectángulo_402870" data-name="Rectángulo 402870" d="M37.5,0h0A37.5,37.5,0,0,1,75,37.5V80a0,0,0,0,1,0,0H0a0,0,0,0,1,0,0V37.5A37.5,37.5,0,0,1,37.5,0Z" transform="translate(693.568 9595.379)" fill="#43b869"/>
    <g id="Grupo_1106873" data-name="Grupo 1106873" transform="translate(685.018 9608.284)">
      <rect id="Rectángulo_403596" data-name="Rectángulo 403596" width="6.668" height="6.358" transform="translate(75.431 30.96)" fill="#eacf5a" stroke="#12263f" stroke-width="1"/>
      <g id="Grupo_1106872" data-name="Grupo 1106872" transform="translate(0 0)">
        <g id="Grupo_1106871" data-name="Grupo 1106871" clip-path="url(#clip-path)">
          <path id="Trazado_912867" data-name="Trazado 912867" d="M66.263,12.682a8.513,8.513,0,0,1,5.749-2.314c5.186,0,9.39,4.916,9.39,10.983a11.921,11.921,0,0,1-2.795,7.81,8.719,8.719,0,0,1-6.6,3.17c-5.187,0-9.389-4.916-9.389-10.98a11.682,11.682,0,0,1,3.64-8.669" transform="translate(4.556 0.754)" fill="#f0dd8c" stroke="#12263f" stroke-width="1"/>
          <path id="Trazado_912868" data-name="Trazado 912868" d="M67.456,9.323a.169.169,0,0,1,.019-.014,15.424,15.424,0,0,1,5.631-1.244c5.545,0,10.04,5.254,10.04,11.739a12.046,12.046,0,0,1-5.607,10.524,12.217,12.217,0,0,0,2.488-4.712,5.165,5.165,0,0,0-1.991-5.173,1.64,1.64,0,0,0-.734-.252c-.992-.124-2.079.082-2.041,1.112,0,0,.038,1.228.019,1.573-.062,1.141-.233,2-1.374,2.069-1.473.085-1.913-.935-2.068-2.069-.054-.395-.257-1.165-.34-1.554-.167-.772-.28-1.279-1.012-1.279v-.02c-3.692-.183-6.618-2.667-6.618-5.712a5.659,5.659,0,0,1,3.588-4.987" transform="translate(4.647 0.587)" fill="#ef674f" stroke="#12263f" stroke-width="1"/>
          <path id="Trazado_912869" data-name="Trazado 912869" d="M71.957,33.792c1.948-.9,8.583-4.428,8.583.312V62.425H63.374V52.343c0-8.924,2.7-15.83,8.583-18.551" transform="translate(4.611 2.305)" fill="#ef674f" stroke="#12263f" stroke-width="1"/>
          <path id="Trazado_912870" data-name="Trazado 912870" d="M65.6,62.682H80.54V60.339H63.373A2.263,2.263,0,0,0,65.6,62.682" transform="translate(4.611 4.39)" fill="#087854" stroke="#12263f" stroke-width="1"/>
          <path id="Trazado_912871" data-name="Trazado 912871" d="M17.4,62.682H2.462V60.339H19.629A2.263,2.263,0,0,1,17.4,62.682" transform="translate(0.179 4.39)" fill="#8ad3a2" stroke="#12263f" stroke-width="1"/>
          <path id="Trazado_912872" data-name="Trazado 912872" d="M44.175,28.421,40.942,25.19l1.814,6.666Z" transform="translate(2.979 1.833)" fill="#fff" stroke="#12263f" stroke-width="1"/>
          <path id="Trazado_912873" data-name="Trazado 912873" d="M37.9,28.452l1.413,3.537,1.849-6.8Z" transform="translate(2.758 1.833)" fill="#b8bec5" stroke="#12263f" stroke-width="1"/>
          <path id="Trazado_912874" data-name="Trazado 912874" d="M39.39,24.167l-2.283-2.285v2.285h.034A7.193,7.193,0,0,0,40.626,25.4Z" transform="translate(2.7 1.592)" fill="#f0dd8c" stroke="#12263f" stroke-width="1"/>
          <path id="Trazado_912875" data-name="Trazado 912875" d="M37.107,20.481v1.5l2.283,2.285,1.236,1.237c.2.016.395.027.6.027.129,0,.254-.009.383-.016a7.208,7.208,0,0,0,3.688-1.243l.014,0V20.481Z" transform="translate(2.7 1.49)" fill="#eacf5a" stroke="#12263f" stroke-width="1"/>
          <path id="Trazado_912876" data-name="Trazado 912876" d="M44.827,9.919c-1.584,0-3.47,1.395-4.423,2.517l.578,11.942c4.2-.039,7.652-5.213,8.144-9.588a9.582,9.582,0,0,0,.061-1.038v-1.8c-.439-1.137-3.156-2.031-4.361-2.031" transform="translate(2.94 0.722)" fill="#eacf5a" stroke="#12263f" stroke-width="1"/>
          <path id="Trazado_912877" data-name="Trazado 912877" d="M48,6.1a22.9,22.9,0,0,1-13.107,4.1c-.565,0-1.122-.027-1.676-.068a8.588,8.588,0,0,0-.065,1v2.9a9.34,9.34,0,0,0,.06,1.038c.5,4.4,3.986,9.589,8.221,9.589l.075,0v-5.42a.94.94,0,0,0,.874-.976V12.91c0-.988,1.868-2.192,3.486-2.192a4.8,4.8,0,0,1,3.845,1.509v-1.1A8.233,8.233,0,0,0,48,6.1" transform="translate(2.412 0.444)" fill="#f0dd8c" stroke="#12263f" stroke-width="1"/>
          <path id="Trazado_912878" data-name="Trazado 912878" d="M50.564,4.639a10.834,10.834,0,0,0-19.706,5.611c-.009.193-.016.39-.016.586V13a2.506,2.506,0,0,0,2.491,2.507h.049a9.316,9.316,0,0,1-.061-1.038v-2.9a8.591,8.591,0,0,1,.065-1c.554.041,1.11.069,1.677.069a22.892,22.892,0,0,0,13.109-4.1l0,0a8.237,8.237,0,0,1,1.714,5.031v2.9a9.861,9.861,0,0,1-.061,1.038h.2A2.507,2.507,0,0,0,52.512,13V10.835a10.8,10.8,0,0,0-1.948-6.2" transform="translate(2.244 0)" fill="#087854" stroke="#12263f" stroke-width="1"/>
          <path id="Trazado_912879" data-name="Trazado 912879" d="M37.141,24.012h-.034V26.4l.852,2.142,3.262-3.262a7.191,7.191,0,0,1-4.08-1.264" transform="translate(2.7 1.747)" fill="#f3f4f5" stroke="#12263f" stroke-width="1"/>
          <path id="Trazado_912880" data-name="Trazado 912880" d="M45.045,26.4h-.017V24.012h-.008a7.184,7.184,0,0,1-4.078,1.264l3.232,3.231Z" transform="translate(2.979 1.747)" fill="#b8bec5" stroke="#12263f" stroke-width="1"/>
          <path id="Trazado_912881" data-name="Trazado 912881" d="M49.975,24.012H45.535l.017,2.384-2.288,5.547L41.45,25.276l-1.849,6.8L37.335,26.4,33.97,29.759l6.77,6.767H57.2V31.238a7.225,7.225,0,0,0-7.225-7.226" transform="translate(2.472 1.747)" fill="#12263f" stroke="#12263f" stroke-width="1"/>
          <path id="Trazado_912882" data-name="Trazado 912882" d="M37.269,24.012H34.883L37.269,26.4Z" transform="translate(2.538 1.747)" fill="#5b697b" stroke="#12263f" stroke-width="1"/>
          <path id="Trazado_912883" data-name="Trazado 912883" d="M34.533,29.759,37.9,26.4l-2.386-2.384h-2.05a7.223,7.223,0,0,0-7.225,7.226v5.288H41.3Z" transform="translate(1.909 1.747)" fill="#5b697b" stroke="#12263f" stroke-width="1"/>
          <rect id="Rectángulo_403597" data-name="Rectángulo 403597" width="2.627" height="2.627" transform="matrix(0.707, -0.707, 0.707, 0.707, 42.064, 28.879)" fill="#5b697b" stroke="#12263f" stroke-width="1"/>
          <path id="Trazado_912884" data-name="Trazado 912884" d="M38.686,14.563H38a.853.853,0,0,0-1.706,0h-.687a1.539,1.539,0,0,1,3.078,0" transform="translate(2.591 0.948)" fill="#087854" stroke="#12263f" stroke-width="1"/>
          <path id="Trazado_912885" data-name="Trazado 912885" d="M46.487,14.563H45.8a.852.852,0,0,0-1.7,0h-.688a1.54,1.54,0,0,1,3.08,0" transform="translate(3.158 0.948)" fill="#087854" stroke="#12263f" stroke-width="1"/>
          <path id="Trazado_912886" data-name="Trazado 912886" d="M73.8,38.022A3.755,3.755,0,0,1,77.58,41.76l.141,22.525-7.513.043L70.066,41.8A3.757,3.757,0,0,1,73.8,38.022" transform="translate(5.098 2.767)" fill="#8ad3a2" stroke="#12263f" stroke-width="1"/>
          <rect id="Rectángulo_403598" data-name="Rectángulo 403598" width="6.667" height="6.358" transform="translate(5.695 30.96)" fill="#eacf5a" stroke="#12263f" stroke-width="1"/>
          <path id="Trazado_912887" data-name="Trazado 912887" d="M16.85,12.682A8.513,8.513,0,0,0,11.1,10.368c-5.186,0-9.389,4.916-9.389,10.983A11.925,11.925,0,0,0,4.5,29.161a8.723,8.723,0,0,0,6.6,3.17c5.187,0,9.389-4.916,9.389-10.98a11.682,11.682,0,0,0-3.64-8.669" transform="translate(0.125 0.754)" fill="#f0dd8c" stroke="#12263f" stroke-width="1"/>
          <path id="Trazado_912888" data-name="Trazado 912888" d="M15.69,9.323a.109.109,0,0,0-.019-.014,15.429,15.429,0,0,0-5.632-1.244C4.495,8.065,0,13.319,0,19.8A12.044,12.044,0,0,0,5.608,30.328,12.2,12.2,0,0,1,3.12,25.616a5.165,5.165,0,0,1,1.991-5.173,1.64,1.64,0,0,1,.734-.252c.992-.124,2.079.082,2.041,1.112,0,0-.038,1.228-.02,1.573.063,1.141.234,2,1.375,2.069,1.473.085,1.913-.935,2.068-2.069.054-.395.257-1.165.34-1.554.167-.772.28-1.279,1.012-1.279v-.02c3.692-.183,6.619-2.667,6.619-5.712A5.66,5.66,0,0,0,15.69,9.323" transform="translate(0 0.587)" fill="#43b869" stroke="#12263f" stroke-width="1"/>
          <path id="Trazado_912889" data-name="Trazado 912889" d="M11.046,33.792c-1.948-.9-8.584-4.428-8.584.312V62.425H19.629V52.343c0-8.924-2.7-15.83-8.583-18.551" transform="translate(0.179 2.305)" fill="#f49989" stroke="#12263f" stroke-width="1"/>
          <path id="Trazado_912890" data-name="Trazado 912890" d="M43.476,35.677H23.692L6.158,59.165H80.795L63.26,35.677Z" transform="translate(0.448 2.596)" fill="#087854" stroke="#12263f" stroke-width="1"/>
          <path id="Trazado_912891" data-name="Trazado 912891" d="M41.2,40.559H34.954l-5.54,7.42H52.993l-5.54-7.42Z" transform="translate(2.14 2.951)" fill="#b8bec5" stroke="#12263f" stroke-width="1"/>
          <path id="Trazado_912892" data-name="Trazado 912892" d="M6.158,62.884H80.794V57.571H6.158Z" transform="translate(0.448 4.189)" fill="#ef674f" stroke="#12263f" stroke-width="1"/>
          <path id="Trazado_912893" data-name="Trazado 912893" d="M25.338,43.194a4.955,4.955,0,1,1-4.954-4.953,4.955,4.955,0,0,1,4.954,4.953" transform="translate(1.123 2.783)" fill="#f49989" stroke="#12263f" stroke-width="1"/>
          <path id="Trazado_912894" data-name="Trazado 912894" d="M24.452,44.93l.008-.012-.076-.043c-.064-.046-.135-.08-.2-.12L10.433,36.607a4.09,4.09,0,0,0-4.262,6.983L20.2,51.9l.01-.019a4.084,4.084,0,0,0,4.246-6.951" transform="translate(0.306 2.62)" fill="#ef674f" stroke="#12263f" stroke-width="1"/>
          <path id="Trazado_912895" data-name="Trazado 912895" d="M23.128,43.054a2.884,2.884,0,1,1-2.885-2.884,2.885,2.885,0,0,1,2.885,2.884" transform="translate(1.263 2.923)" fill="#f0dd8c" stroke="#12263f" stroke-width="1"/>
          <path id="Trazado_912896" data-name="Trazado 912896" d="M55.785,34.956a2.4,2.4,0,1,0,4.69-1.018L59.04,27.313a2.4,2.4,0,0,0-4.693,1.017Z" transform="translate(3.95 1.85)" fill="#eacf5a" stroke="#12263f" stroke-width="1"/>
          <rect id="Rectángulo_403599" data-name="Rectángulo 403599" width="4.819" height="2.663" transform="translate(58.587 31.511) rotate(-12.238)" fill="#b8bec5" stroke="#12263f" stroke-width="1"/>
          <path id="Trazado_912897" data-name="Trazado 912897" d="M68.738,36.842a3.344,3.344,0,0,0-2.226.248l-3.886,1.95-2.088-9.582L53.95,30.887l3.011,13.829A3.376,3.376,0,0,0,60.972,47.3a3.233,3.233,0,0,0,.6-.194l0,0,.025-.014.093-.046L66.2,44.787c0-.079-.012-.158-.012-.239a12.927,12.927,0,0,1,2.547-7.706" transform="translate(3.925 2.143)" fill="#8ad3a2" stroke="#12263f" stroke-width="1"/>
        </g>
      </g>
    </g>
  </g>
</svg>
