<svg xmlns="http://www.w3.org/2000/svg" xmlns:xlink="http://www.w3.org/1999/xlink" width="55.369" height="59.061" viewBox="0 0 55.369 59.061">
  <defs>
    <clipPath id="clip-path">
      <rect id="Rect치ngulo_403611" data-name="Rect치ngulo 403611" width="50.483" height="51.143" fill="none"/>
    </clipPath>
  </defs>
  <g id="Grupo_1106889" data-name="Grupo 1106889" transform="translate(-336.165 -3990.315)">
    <path id="Rect치ngulo_402870" data-name="Rect치ngulo 402870" d="M27.685,0h0A27.685,27.685,0,0,1,55.369,27.685V59.061a0,0,0,0,1,0,0H0a0,0,0,0,1,0,0V27.685A27.685,27.685,0,0,1,27.685,0Z" transform="translate(336.165 3990.315)" fill="#eacf5a"/>
    <g id="Grupo_1106882" data-name="Grupo 1106882" transform="translate(338.608 3994.274)">
      <g id="Grupo_1106881" data-name="Grupo 1106881" transform="translate(0 0)" clip-path="url(#clip-path)">
        <path id="Trazado_912994" data-name="Trazado 912994" d="M65.109,2.433H34.842a1.942,1.942,0,0,0-1.936,1.914V19.916a11.871,11.871,0,0,1,1.76-.087,16.048,16.048,0,0,1,13.9,8H54.99l9.5,5.044-.88-5.044h1.5a1.942,1.942,0,0,0,1.936-1.914V4.347a1.887,1.887,0,0,0-1.936-1.914" transform="translate(-17.617 -1.303)" fill="#ef674f"/>
        <path id="Trazado_912995" data-name="Trazado 912995" d="M82.489,26.021a1.661,1.661,0,0,1,1.672,1.653,1.721,1.721,0,0,1-1.672,1.653,1.653,1.653,0,1,1,0-3.305" transform="translate(-43.267 -13.931)" fill="#eacf5a"/>
        <path id="Trazado_912996" data-name="Trazado 912996" d="M67.717,26.021a1.662,1.662,0,0,1,1.672,1.653,1.722,1.722,0,0,1-1.672,1.653,1.653,1.653,0,1,1,0-3.305" transform="translate(-35.359 -13.931)" fill="#eacf5a"/>
        <path id="Trazado_912997" data-name="Trazado 912997" d="M52.947,26.021a1.661,1.661,0,0,1,1.672,1.653,1.672,1.672,0,1,1-1.672-1.653" transform="translate(-27.451 -13.931)" fill="#eacf5a"/>
        <path id="Trazado_912998" data-name="Trazado 912998" d="M18.342,39.874a16.048,16.048,0,0,1,13.9,8A15.557,15.557,0,0,1,34.356,55.7,15.831,15.831,0,0,1,18.43,71.448H2.417L7.96,67.62a15.6,15.6,0,0,1-5.543-12A15.8,15.8,0,0,1,16.583,39.961a11.357,11.357,0,0,1,1.76-.087" transform="translate(-1.294 -21.348)" fill="#96d5ca"/>
        <path id="Trazado_912999" data-name="Trazado 912999" d="M81.171,29.155a2.784,2.784,0,1,1,2.816-2.784,2.819,2.819,0,0,1-2.816,2.784m0-3.392a.609.609,0,1,0,.616.609.657.657,0,0,0-.616-.609" transform="translate(-41.949 -12.628)"/>
        <path id="Trazado_913000" data-name="Trazado 913000" d="M66.4,29.155a2.784,2.784,0,1,1,2.815-2.784A2.764,2.764,0,0,1,66.4,29.155m0-3.392a.609.609,0,1,0,.616.609.657.657,0,0,0-.616-.609" transform="translate(-34.041 -12.628)"/>
        <path id="Trazado_913001" data-name="Trazado 913001" d="M51.629,29.155a2.784,2.784,0,1,1,2.816-2.784,2.764,2.764,0,0,1-2.816,2.784m0-3.392a.609.609,0,1,0,.616.609.657.657,0,0,0-.616-.609" transform="translate(-26.133 -12.628)"/>
        <path id="Trazado_913002" data-name="Trazado 913002" d="M63.073,32.618a1.127,1.127,0,0,1-.528-.087l-9.326-4.958H46.972a1.131,1.131,0,1,1,0-2.262h6.6c.176,0,.352.087.528.087l7.567,4-.528-2.87a.828.828,0,0,1,.264-.87,1.027,1.027,0,0,1,.88-.348h1.5a.877.877,0,0,0,.88-.87V3.045a.876.876,0,0,0-.88-.87H33.422a.877.877,0,0,0-.88.87V18.614a1.144,1.144,0,0,1-2.288,0V3.045A3.1,3.1,0,0,1,33.334,0H63.6a3.1,3.1,0,0,1,3.08,3.044V24.529a3.1,3.1,0,0,1-3.08,3.044h-.176l.616,3.827a.992.992,0,0,1-.44,1.044.746.746,0,0,1-.528.174" transform="translate(-16.197 -0.001)"/>
        <path id="Trazado_913003" data-name="Trazado 913003" d="M17.048,71.188H1.123A1.23,1.23,0,0,1,.067,70.4a.994.994,0,0,1,.44-1.217l4.487-3.044A16.62,16.62,0,0,1,.067,54.314a16.906,16.906,0,0,1,4.4-11.307A17.106,17.106,0,0,1,15.2,37.527a13.715,13.715,0,0,1,1.935-.087,17.154,17.154,0,0,1,14.782,8.524,16.254,16.254,0,0,1,2.2,8.35A16.988,16.988,0,0,1,17.048,71.188M4.642,69.013H17.048a14.657,14.657,0,1,0,0-29.311,10.781,10.781,0,0,0-1.672.087A14.636,14.636,0,0,0,7.37,65.534a.884.884,0,0,1,.352.87,1.2,1.2,0,0,1-.44.87Z" transform="translate(0 -20.044)"/>
        <path id="Trazado_913004" data-name="Trazado 913004" d="M25.317,62.915H17.487a1.083,1.083,0,0,1-1.056-1.13,1.144,1.144,0,0,1,1.056-1.131h7.831a1.158,1.158,0,0,1,1.144,1.131,1.223,1.223,0,0,1-1.144,1.13" transform="translate(-8.797 -32.473)"/>
        <path id="Trazado_913005" data-name="Trazado 913005" d="M34.908,72.275H17.487a1.083,1.083,0,0,1-1.056-1.13,1.144,1.144,0,0,1,1.056-1.131H35a1.158,1.158,0,0,1,1.144,1.131,1.239,1.239,0,0,1-1.232,1.13" transform="translate(-8.797 -37.484)"/>
        <path id="Trazado_913006" data-name="Trazado 913006" d="M34.908,81.635H17.487a1.083,1.083,0,0,1-1.056-1.13,1.144,1.144,0,0,1,1.056-1.131H35A1.158,1.158,0,0,1,36.14,80.5a1.308,1.308,0,0,1-1.232,1.13" transform="translate(-8.797 -42.495)"/>
      </g>
    </g>
  </g>
</svg>
