<svg xmlns="http://www.w3.org/2000/svg" xmlns:xlink="http://www.w3.org/1999/xlink" width="69.551" height="69.616" viewBox="0 0 69.551 69.616">
  <defs>
    <clipPath id="clip-path">
      <rect id="Rectángulo_403589" data-name="Rectángulo 403589" width="69.551" height="69.616" fill="#087854"/>
    </clipPath>
  </defs>
  <g id="Grupo_1106888" data-name="Grupo 1106888" transform="translate(-940.018 -9594.651)">
    <g id="Grupo_1106858" data-name="Grupo 1106858" transform="translate(940.018 9594.651)">
      <g id="Grupo_1106857" data-name="Grupo 1106857" clip-path="url(#clip-path)">
        <path id="Trazado_912796" data-name="Trazado 912796" d="M62.517,97.76a26.479,26.479,0,0,0,1.117,2.852,1.474,1.474,0,0,0,1.107.59c2.7.05,5.411.055,8.115,0,.432-.009.839-.454,1.288-.608.491-.168,1.094-.432,1.5-.275.293.113.542.884.468,1.3a2.033,2.033,0,0,1-2.327,1.977c-3.377-.12-6.762-.067-10.143-.02a1.743,1.743,0,0,1-1.939-1.331c-.33-1.007-.737-1.989-1.137-2.972-.294-.723-.384-1.565-1.484-1.715-.293-.04-.644-.9-.671-1.4-.086-1.59.014-3.188-.047-4.78-.051-1.346.568-1.768,1.839-1.758,4.976.038,9.952.016,14.928.015h1.8c0-.858.065-1.662-.015-2.453a2.409,2.409,0,0,1,1.415-2.544,18.428,18.428,0,0,0,3.743-28.8c-5.436-5.447-12.055-7.059-19.317-4.545-7.331,2.538-11.59,7.975-12.35,15.675-.742,7.514,2.38,13.415,8.7,17.6.78.517,2.235.838,1.421,2.17-.857,1.4-1.893.242-2.712-.262A20.86,20.86,0,1,1,89.444,65.857c1.117,8.544-2.1,15.3-9.1,20.246a2.187,2.187,0,0,0-1.1,2.089c.061,2.511.025,5.024.019,7.536,0,1.795-.228,2.028-1.988,2.03-4.828.006-9.656,0-14.755,0m-1.738-2.431H76.816v-3.3H60.778Z" transform="translate(-34.046 -33.982)" fill="#087854"/>
        <path id="Trazado_912797" data-name="Trazado 912797" d="M77.966,78.918l-1.3,2.256c1.254,1.352,2.843,2.2,2.748,4.679-.09,2.313-1.332,3.307-2.776,4.55L78,92.779c1.816-.52,3.345-1.31,5.437-.072,2.035,1.2,2.1,2.864,2.559,4.637H88.7c.464-1.8.572-3.5,2.677-4.7,2.068-1.173,3.536-.344,5.331.105L98.039,90.5c-1.1-1.392-2.827-2.155-2.758-4.643.066-2.348,1.342-3.306,2.78-4.65l-1.336-2.332c-1.78.415-3.306,1.365-5.4.08-2-1.224-2.176-2.816-2.617-4.73a23.345,23.345,0,0,1-3.446-.053c-.5-.075-.914-.726-1.368-1.116.457-.385.883-1.044,1.379-1.1,1.335-.155,2.7-.035,4.052-.061a1.371,1.371,0,0,1,1.567,1.328c.092.619.246,1.23.382,1.842A2.593,2.593,0,0,0,94.8,77.039c3.146-1.054,2.77-1.439,4.536,1.686.024.042.054.081.077.123,1.728,3.106,2.011,2.534-.825,5.015a2.6,2.6,0,0,0,.06,3.956c2.774,2.421,2.479,1.905.8,4.9-.047.084-.1.163-.152.247-1.713,3.057-1.416,2.665-4.431,1.651a2.6,2.6,0,0,0-3.619,2.012c-.061.283-.095.571-.149.856-.424,2.2-.48,2.249-2.712,2.25h-.29c-3.781,0-3.781,0-4.761-3.642a2.8,2.8,0,0,0-2.9-1.648c-.046.013-.092.03-.139.04-1.145.222-2.854,1.017-3.324.554a15.317,15.317,0,0,1-2.843-4.619c-.168-.369.6-1.276,1.08-1.8.813-.891,1.931-1.425,1.787-3.035A3.043,3.043,0,0,0,75.6,83.4c-1.939-1.707-1.943-1.7-.674-3.905.048-.083.1-.164.15-.248,1.808-3.139,1.8-3.109,5.239-2.131A2.837,2.837,0,0,0,82,76.837c.763-.318,1.512-.91,2.153.068.655,1-.118,1.457-.852,1.913-1.694,1.054-1.688,1.063-5.338.1" transform="translate(-52.582 -51.036)" fill="#087854"/>
        <path id="Trazado_912798" data-name="Trazado 912798" d="M108.507,113.256a4.64,4.64,0,1,1,4.708-4.5,4.668,4.668,0,0,1-4.708,4.5m2.376-4.629a2.308,2.308,0,1,0-2.283,2.3,2.318,2.318,0,0,0,2.283-2.3" transform="translate(-73.804 -73.833)" fill="#087854"/>
        <path id="Trazado_912799" data-name="Trazado 912799" d="M167.862,16.845a2.115,2.115,0,0,1-.069.5c-1.263,2.206-2.5,4.429-3.843,6.584a1.414,1.414,0,0,1-1.366.144,1.41,1.41,0,0,1-.46-1.3q1.719-3.241,3.673-6.353c.188-.3.928-.41,1.369-.338.3.049.531.564.7.756" transform="translate(-115.092 -11.409)" fill="#087854"/>
        <path id="Trazado_912800" data-name="Trazado 912800" d="M24.17,163.467a3.974,3.974,0,0,1-.861.924c-1.816,1.1-3.671,2.135-5.51,3.2-.712.411-1.507.554-1.8-.338a1.815,1.815,0,0,1,.609-1.6c1.817-1.183,3.722-2.237,5.622-3.288,1-.553,1.881-.144,1.937,1.107" transform="translate(-11.34 -115.119)" fill="#087854"/>
        <path id="Trazado_912801" data-name="Trazado 912801" d="M16.981,57.074c2.391,1.468,4.72,2.865,6.991,4.352.172.113.086.984-.156,1.265a1.335,1.335,0,0,1-1.24.3c-2.112-1.133-4.194-2.328-6.225-3.6-.306-.192-.433-.916-.373-1.357.041-.3.546-.546,1-.961" transform="translate(-11.336 -40.528)" fill="#087854"/>
        <path id="Trazado_912802" data-name="Trazado 912802" d="M118.187,4.661a19.741,19.741,0,0,1-.049,3.178c-.084.516-.7.946-1.069,1.415-.4-.442-1.123-.866-1.148-1.328a63.725,63.725,0,0,1,0-6.656c.022-.44.695-.848,1.068-1.271.4.444,1.066.845,1.147,1.34a21.03,21.03,0,0,1,.055,3.322" transform="translate(-82.251 0.001)" fill="#087854"/>
        <path id="Trazado_912803" data-name="Trazado 912803" d="M196.848,63.911c-.194-.183-.662-.42-.738-.748-.091-.392.008-1.1.274-1.261q3.177-1.965,6.476-3.726a1.28,1.28,0,0,1,1.184.448c.179.379.131,1.231-.124,1.391-2.152,1.343-4.373,2.576-6.576,3.836a1.984,1.984,0,0,1-.5.059" transform="translate(-139.232 -41.285)" fill="#087854"/>
        <path id="Trazado_912804" data-name="Trazado 912804" d="M4.626,115.887a23.706,23.706,0,0,1,3.325.049c.473.068.869.674,1.3,1.036-.431.411-.844,1.153-1.3,1.178a59.876,59.876,0,0,1-6.658,0c-.453-.025-.865-.767-1.3-1.179.431-.362.828-.967,1.3-1.035a23.662,23.662,0,0,1,3.325-.049" transform="translate(0 -82.265)" fill="#087854"/>
        <path id="Trazado_912805" data-name="Trazado 912805" d="M212.768,115.866a19.814,19.814,0,0,1,3.179.051c.514.084.94.7,1.407,1.076-.444.4-.871,1.116-1.336,1.142a58.68,58.68,0,0,1-6.514,0,1.813,1.813,0,0,1-1.333-1.094c-.165-.89.576-1.194,1.41-1.183,1.063.013,2.125,0,3.188,0" transform="translate(-147.803 -82.246)" fill="#087854"/>
        <path id="Trazado_912806" data-name="Trazado 912806" d="M197,161.624a8.521,8.521,0,0,1,.824.347c1.96,1.124,3.945,2.208,5.843,3.428.359.231.367,1.009.537,1.535-.533.153-1.216.6-1.573.411-2.089-1.082-4.124-2.276-6.116-3.528a1.577,1.577,0,0,1-.43-1.345c.06-.338.613-.588.914-.848" transform="translate(-139.226 -114.767)" fill="#087854"/>
        <path id="Trazado_912807" data-name="Trazado 912807" d="M63.97,23.2c-.18.2-.413.669-.741.748-.393.094-1.1,0-1.268-.27-1.3-2.082-2.54-4.206-3.693-6.374-.155-.291.16-1.054.485-1.309a1.3,1.3,0,0,1,1.272.112c1.35,2.162,2.6,4.384,3.878,6.593a2.068,2.068,0,0,1,.066.5" transform="translate(-41.347 -11.278)" fill="#087854"/>
      </g>
    </g>
  </g>
</svg>
