<svg xmlns="http://www.w3.org/2000/svg" xmlns:xlink="http://www.w3.org/1999/xlink" width="55.369" height="59.061" viewBox="0 0 55.369 59.061">
  <defs>
    <clipPath id="clip-path">
      <rect id="Rect치ngulo_403606" data-name="Rect치ngulo 403606" width="42.602" height="39.21" fill="none"/>
    </clipPath>
  </defs>
  <g id="Grupo_1106890" data-name="Grupo 1106890" transform="translate(-774.051 -3990.315)">
    <path id="Rect치ngulo_403552" data-name="Rect치ngulo 403552" d="M27.685,0h0A27.685,27.685,0,0,1,55.369,27.685V59.061a0,0,0,0,1,0,0H0a0,0,0,0,1,0,0V27.685A27.685,27.685,0,0,1,27.685,0Z" transform="translate(774.051 3990.315)" fill="#eacf5a"/>
    <g id="Grupo_1106877" data-name="Grupo 1106877" transform="translate(780.051 4000.566)">
      <g id="Grupo_1106876" data-name="Grupo 1106876" clip-path="url(#clip-path)">
        <path id="Trazado_912946" data-name="Trazado 912946" d="M43.642,35.785a2.009,2.009,0,0,0-2.008-2.009H4.41A2.009,2.009,0,0,0,2.4,35.785v4.185H43.642Z" transform="translate(-1.721 -24.203)" fill="#96d5ca"/>
        <path id="Trazado_912947" data-name="Trazado 912947" d="M41.922,38.93H.68a.68.68,0,0,1-.68-.68V34.065a2.692,2.692,0,0,1,2.69-2.689H39.914A2.692,2.692,0,0,1,42.6,34.065v4.185a.681.681,0,0,1-.68.68M1.361,37.569h39.88v-3.5a1.329,1.329,0,0,0-1.328-1.328H2.69a1.33,1.33,0,0,0-1.329,1.328Z" transform="translate(0 -22.484)"/>
        <path id="Trazado_912948" data-name="Trazado 912948" d="M4.41,78.391H41.635a2.008,2.008,0,0,0,2.008-2.009V55.627H2.4V76.382A2.008,2.008,0,0,0,4.41,78.391" transform="translate(-1.721 -39.862)" fill="#ef674f"/>
        <path id="Trazado_912949" data-name="Trazado 912949" d="M39.915,77.351H2.69A2.692,2.692,0,0,1,0,74.662V53.906a.68.68,0,0,1,.68-.68H41.923a.68.68,0,0,1,.68.68V74.662a2.692,2.692,0,0,1-2.688,2.689M1.363,54.587V74.662A1.329,1.329,0,0,0,2.69,75.99H39.915a1.329,1.329,0,0,0,1.328-1.328V54.587Z" transform="translate(-0.001 -38.141)"/>
        <path id="Trazado_912950" data-name="Trazado 912950" d="M12.221,42.421a.377.377,0,0,1-.377.377H8.916a.377.377,0,0,1,0-.753h2.929a.377.377,0,0,1,.377.377" transform="translate(-6.119 -30.128)"/>
        <path id="Trazado_912951" data-name="Trazado 912951" d="M133.49,42.421a.377.377,0,0,1-.376.377h-2.93a.377.377,0,0,1,0-.753h2.93a.377.377,0,0,1,.376.377" transform="translate(-93.019 -30.128)"/>
        <path id="Trazado_912952" data-name="Trazado 912952" d="M82.036,28.79a2.248,2.248,0,0,0,4.1,1.658L94.891,8.8l-4.1-1.658Z" transform="translate(-58.705 -5.115)" fill="#ef674f"/>
        <path id="Trazado_912953" data-name="Trazado 912953" d="M83.5,30.992h0a2.9,2.9,0,0,1-1.092-.216A2.388,2.388,0,0,1,80.864,27.8L89.622,6.15a.34.34,0,0,1,.443-.188l4.1,1.657a.34.34,0,0,1,.188.443L85.591,29.715A2.187,2.187,0,0,1,83.5,30.992M90.125,6.721,81.494,28.058a1.717,1.717,0,0,0,1.172,2.087,2.23,2.23,0,0,0,.837.166,1.5,1.5,0,0,0,1.457-.851L93.591,8.123Z" transform="translate(-57.848 -4.255)"/>
        <path id="Trazado_912954" data-name="Trazado 912954" d="M116.211,1.392a2.049,2.049,0,0,0-2.737.873l-.25.619,4.1,1.657.25-.618a2.049,2.049,0,0,0-1.36-2.53" transform="translate(-81.135 -0.86)" fill="#96d5ca"/>
        <path id="Trazado_912955" data-name="Trazado 912955" d="M116.461,4.02A.344.344,0,0,1,116.334,4l-4.1-1.657a.341.341,0,0,1-.188-.443l.25-.619A2.187,2.187,0,0,1,114.386,0a2.905,2.905,0,0,1,1.093.216,2.388,2.388,0,0,1,1.548,2.973l-.25.618a.339.339,0,0,1-.183.186.343.343,0,0,1-.133.027m-3.655-2.185,3.467,1.4.122-.3A1.717,1.717,0,0,0,115.223.847a2.229,2.229,0,0,0-.838-.167,1.494,1.494,0,0,0-1.456.851Z" transform="translate(-80.275)"/>
        <path id="Trazado_912956" data-name="Trazado 912956" d="M85.068,86.519l-4.1-1.657L80.7,89.623c.356.165.779.354,1.221.546Z" transform="translate(-57.828 -60.811)" fill="#fff"/>
        <path id="Trazado_912957" data-name="Trazado 912957" d="M81.122,89.333l-.23-.1c-.445-.194-.871-.383-1.229-.549l-.21-.1.312-5.466,4.977,2.013Zm-.962-1.17c.239.109.5.226.774.346l2.674-3.1-3.217-1.3Z" transform="translate(-56.936 -59.563)"/>
        <path id="Trazado_912958" data-name="Trazado 912958" d="M80.7,101.662V103.5l1.221-1.3Z" transform="translate(-57.829 -72.85)"/>
      </g>
    </g>
  </g>
</svg>
