<svg xmlns="http://www.w3.org/2000/svg" xmlns:xlink="http://www.w3.org/1999/xlink" width="75" height="80" viewBox="0 0 75 80">
  <defs>
    <clipPath id="clip-path">
      <rect id="Rect치ngulo_403591" data-name="Rect치ngulo 403591" width="55.644" height="53.622" fill="#eacf5a"/>
    </clipPath>
  </defs>
  <g id="Grupo_1106889" data-name="Grupo 1106889" transform="translate(-1181.068 -9595)">
    <path id="Rect치ngulo_402870" data-name="Rect치ngulo 402870" d="M37.5,0h0A37.5,37.5,0,0,1,75,37.5V80a0,0,0,0,1,0,0H0a0,0,0,0,1,0,0V37.5A37.5,37.5,0,0,1,37.5,0Z" transform="translate(1181.068 9595)" fill="#087854"/>
    <g id="Grupo_1106862" data-name="Grupo 1106862" transform="translate(1188.247 9614.026)">
      <g id="Grupo_1106861" data-name="Grupo 1106861" transform="translate(1 -2)" clip-path="url(#clip-path)">
        <path id="Trazado_912811" data-name="Trazado 912811" d="M29.763,36.372v3.921c.944,0,1.874.07,2.789-.018a1.931,1.931,0,0,1,2.232,1.266,1.286,1.286,0,0,0,1.482.9,3.017,3.017,0,0,1,3.044,2.294,3.225,3.225,0,0,1-1.362,3.506,3.171,3.171,0,0,1-3.826-.3,3.131,3.131,0,0,1-.733-3.761c.648-1.325.128-2.118-1.393-2.121-.72,0-1.439,0-2.335,0v4.81c0,3.64-1.413,5.693-4.549,6.521a6.665,6.665,0,0,1-5.225-.75,1.479,1.479,0,0,0-1.055-.174c-4.59,1.464-8.362-.8-9.219-5.567a2.815,2.815,0,0,0-.088-.3A7.468,7.468,0,0,1,4.122,35.4C-.792,31.84-1.31,28.02,2.555,23.851.83,18.777,2.07,15.629,6.6,13.361A25.11,25.11,0,0,1,6.8,9.667a7.19,7.19,0,0,1,8.334-5.527,1.163,1.163,0,0,0,1.443-.677,7.269,7.269,0,0,1,12.159-.344,6.5,6.5,0,0,1,.951,3c.152,1.758.042,3.539.042,5.291,2.245.6,3.329.3,4.116-1.16a3.284,3.284,0,0,1-.591-3.22,3.175,3.175,0,0,1,6.1,1.685,3.089,3.089,0,0,1-3.266,2.567c-.625-.061-.973.086-1.177.616a2.182,2.182,0,0,1-2.594,1.414c-.814-.082-1.643-.016-2.523-.016v3.986h5.559c1.411,0,2.825.046,4.233-.028a2.54,2.54,0,0,0,1.272-.586c.365-.279.568-.77.933-1.048,1.37-1.046,1.241-2.517,1.125-3.95-.025-.307-.474-.636-.8-.854a3.18,3.18,0,0,1-1.338-3.6A3.122,3.122,0,0,1,43.9,5a3.175,3.175,0,0,1,3,2.534,3.072,3.072,0,0,1-1.533,3.315c-.548.3-.848.61-.741,1.239.341,2.024-.507,3.514-1.819,5.034a4.7,4.7,0,0,1-4.221,1.924C35.7,18.876,32.8,19,29.823,19v3.165H30.9c3.076,0,6.153.033,9.227-.032a2.452,2.452,0,0,0,1.545-.7c1.157-1.194,2.242-2.462,3.285-3.758a2.016,2.016,0,0,1,1.954-.872c.393.047.8-.023,1.193.015a1.545,1.545,0,0,0,1.8-.936,2.917,2.917,0,0,1,3.487-1.27,3.083,3.083,0,0,1,2.257,2.975A3.156,3.156,0,0,1,53.5,20.662a3.213,3.213,0,0,1-3.646-1.227c-.288-.419-.359-1.065-1.131-.928-.971.172-2.051-.384-2.877.711A40.038,40.038,0,0,1,42.5,23.056a2.628,2.628,0,0,1-1.649.741c-3.255.069-6.513.034-9.77.034H29.819v5.99h4.912c2.1,0,4.2-.038,6.3.029a2.178,2.178,0,0,1,1.376.626c1.263,1.343,2.434,2.773,3.659,4.153a2.793,2.793,0,0,0,3.721-.293,3.171,3.171,0,0,1,3.588-1.381,3.211,3.211,0,0,1,2.27,3.1,3.144,3.144,0,0,1-2.378,3.006,3.01,3.01,0,0,1-3.452-1.4c-.344-.62-.7-.963-1.415-.826A4.09,4.09,0,0,1,43.929,34.8,24.326,24.326,0,0,0,41.588,32.1a1.491,1.491,0,0,0-.855-.554c-3.612-.038-7.224-.025-10.918-.025v3.1h2.671c2.569,0,5.14-.035,7.707.031a2.917,2.917,0,0,1,1.471.665c.4.291.635.793,1.009,1.127a5.485,5.485,0,0,1,1.976,5.187,1.388,1.388,0,0,0,.619,1.034,3.3,3.3,0,0,1,1.6,3.7,3.2,3.2,0,0,1-6.149.095,3.265,3.265,0,0,1,1.6-3.793,1.419,1.419,0,0,0,.6-.758c.6-2.439-1.089-3.855-2.486-5.387a.73.73,0,0,0-.491-.148c-3.358-.008-6.715-.006-10.179-.006M17.834,4.721c2.642,1.789,3.606,3.686,3.049,6.171-.081.364-.621.625-.949.933-.248-.341-.706-.678-.713-1.024-.066-3.334-.419-3.877-3.479-4.792A5.417,5.417,0,0,0,9.876,7.487a5.388,5.388,0,0,0-1.193,5.831A2.108,2.108,0,0,0,11.42,14.9a1.407,1.407,0,0,1,1.2.47c.312.608-.158.991-.76,1.15a3.816,3.816,0,0,1-3.9-.991,1.3,1.3,0,0,0-.945-.42c-3.051.75-4.694,5.228-2.872,7.784A4.87,4.87,0,0,1,9.56,24.292c.4.456.765,1,.176,1.51s-1.026.082-1.457-.384a3.043,3.043,0,0,0-4.287-.457,4.985,4.985,0,0,0,1.243,8.881c1.479.517,1.565.772.681,2.022a5.432,5.432,0,0,0-.827,5.047,5.167,5.167,0,0,0,4.54,3.832,4.77,4.77,0,0,0,4.752-2.4,1.135,1.135,0,0,1,1.02-.408c.272.146.567.833.445,1.024a8.443,8.443,0,0,1-1.815,2.193,14.891,14.891,0,0,1-2.677,1.334,4.771,4.771,0,0,0,4.35,4.723c3.323.407,5.372-1.925,4.559-5.119-.083-.324.293-.765.456-1.152.356.162.894.227,1.039.5a4.569,4.569,0,0,1-.317,5.013c-.174.254-.364.5-.656.894a17.385,17.385,0,0,0,2.338.563c2.365.226,4.9-1.722,4.9-3.754.016-6.331.021-12.662-.028-18.993a1.715,1.715,0,0,0-.779-1.213A3.087,3.087,0,0,0,24.406,28c-.319.128-.834-.23-1.26-.367a4.276,4.276,0,0,1,.581-1.111,1.571,1.571,0,0,1,.985-.4c1.087-.049,2.176-.018,3.319-.018,0-2.119,0-4.361,0-6.6,0-1.274-.305-1.718-1.578-1.823A15.245,15.245,0,0,0,24.368,18a5.356,5.356,0,0,1-1.315-.24c.18-.413.259-1.068.559-1.191a9.222,9.222,0,0,1,2.586-.615,7.934,7.934,0,0,1,1.889.287c0-3.622.005-7.165-.01-10.707a1.837,1.837,0,0,0-.24-.818,5.373,5.373,0,0,0-5-3.053,5.494,5.494,0,0,0-5,3.06M36.224,9.6a1.487,1.487,0,0,0,1.461-1.436,1.46,1.46,0,1,0-2.915,0A1.49,1.49,0,0,0,36.224,9.6m17.692,26.4a1.455,1.455,0,0,0-1.4-1.478A1.475,1.475,0,0,0,50.978,36a1.457,1.457,0,0,0,1.414,1.468,1.44,1.44,0,0,0,1.524-1.456m-17.7,8.023a1.494,1.494,0,0,0-1.45,1.555,1.46,1.46,0,1,0,2.917-.126,1.485,1.485,0,0,0-1.467-1.429m9.026,1.484a1.461,1.461,0,1,0-2.921.013,1.461,1.461,0,1,0,2.921-.013M43.822,6.623a1.441,1.441,0,0,0-1.476,1.4,1.457,1.457,0,1,0,2.91.149,1.447,1.447,0,0,0-1.434-1.553m8.688,9.536a1.467,1.467,0,1,0,1.416,1.554,1.434,1.434,0,0,0-1.416-1.554" transform="translate(0 0)" fill="#eacf5a"/>
        <path id="Trazado_912812" data-name="Trazado 912812" d="M85.317,146.074a4.78,4.78,0,0,1-4.66-4.147,1.37,1.37,0,0,1,.6-1.147c.62-.238.923.241,1.054.871a3.04,3.04,0,0,0,3.028,2.7c.631.019,1.357-.049,1.338.835-.02.92-.8.858-1.365.887" transform="translate(-63.139 -110.161)" fill="#eacf5a"/>
        <path id="Trazado_912813" data-name="Trazado 912813" d="M61.036,90.489A4.776,4.776,0,0,1,65.043,92.4c.225.328.037.937.039,1.418-.432-.118-.994-.1-1.275-.377-1.278-1.246-2.266-1.524-3.9-.859-.579.235-1.076.3-1.37-.34-.317-.686.183-1.023.7-1.22.667-.253,1.37-.411,1.8-.534" transform="translate(-45.747 -70.84)" fill="#eacf5a"/>
        <path id="Trazado_912814" data-name="Trazado 912814" d="M48.91,140.733c.207.369.6.74.591,1.106a3.2,3.2,0,0,0,2.289,3.39c.609.216.979.671.63,1.219a1.4,1.4,0,0,1-1.241.355,4.565,4.565,0,0,1-3.279-4.958,3.869,3.869,0,0,1,.547-1.088l.464-.024" transform="translate(-37.465 -110.173)" fill="#eacf5a"/>
      </g>
    </g>
  </g>
</svg>
