<svg xmlns="http://www.w3.org/2000/svg" xmlns:xlink="http://www.w3.org/1999/xlink" width="75" height="94.379" viewBox="0 0 75 94.379">
  <defs>
    <clipPath id="clip-path">
      <rect id="Rectángulo_403605" data-name="Rectángulo 403605" width="62.217" height="94.379" fill="none"/>
    </clipPath>
  </defs>
  <g id="Grupo_1106890" data-name="Grupo 1106890" transform="translate(-693.568 -9944)">
    <path id="Rectángulo_402870" data-name="Rectángulo 402870" d="M37.5,0h0A37.5,37.5,0,0,1,75,37.5V80a0,0,0,0,1,0,0H0a0,0,0,0,1,0,0V37.5A37.5,37.5,0,0,1,37.5,0Z" transform="translate(693.568 9958.379)" fill="#43b869"/>
    <g id="Grupo_1106875" data-name="Grupo 1106875" transform="translate(699.96 9944)">
      <g id="Grupo_1106874" data-name="Grupo 1106874" transform="translate(0 0)" clip-path="url(#clip-path)">
        <path id="Trazado_912898" data-name="Trazado 912898" d="M33.9,44.5h4.273A11.089,11.089,0,0,1,27.1,55.576V51.3a6.812,6.812,0,0,0,6.8-6.8" transform="translate(4.011 6.585)" fill="#087854"/>
        <path id="Trazado_912899" data-name="Trazado 912899" d="M17.451,44.5h4.276a6.811,6.811,0,0,0,6.8,6.8v4.276A11.093,11.093,0,0,1,17.451,44.5" transform="translate(2.583 6.585)" fill="#86bdab"/>
        <path id="Trazado_912900" data-name="Trazado 912900" d="M44,44.5h4.276A21.2,21.2,0,0,1,27.1,65.671V61.4A16.92,16.92,0,0,0,44,44.5" transform="translate(4.011 6.585)" fill="#087854"/>
        <path id="Trazado_912901" data-name="Trazado 912901" d="M8.656,44.5h4.276a16.921,16.921,0,0,0,16.9,16.9v4.275A21.2,21.2,0,0,1,8.656,44.5" transform="translate(1.281 6.585)" fill="#86bdab"/>
        <path id="Trazado_912902" data-name="Trazado 912902" d="M31.439,35.952,27.1,31.612l2.437,8.958Z" transform="translate(4.01 4.678)" fill="#fff"/>
        <path id="Trazado_912903" data-name="Trazado 912903" d="M23.281,35.992l1.9,4.754,2.485-9.135Z" transform="translate(3.445 4.678)" fill="#f6eab8"/>
        <path id="Trazado_912904" data-name="Trazado 912904" d="M25.351,30.529l-3.066-3.067v3.067h.048a9.662,9.662,0,0,0,4.679,1.663Z" transform="translate(3.298 4.064)" fill="#7bcd96"/>
        <path id="Trazado_912905" data-name="Trazado 912905" d="M22.284,25.7v2.018L25.35,30.79l1.661,1.663c.264.021.53.033.8.033.173,0,.343-.009.515-.021A9.646,9.646,0,0,0,33.277,30.8l.02-.007V25.7Z" transform="translate(3.298 3.804)" fill="#43b869"/>
        <path id="Trazado_912906" data-name="Trazado 912906" d="M32.364,12.449c-2.131,0-4.661,1.872-5.94,3.379L27.2,31.866c5.641-.052,10.278-7,10.937-12.876a12.617,12.617,0,0,0,.083-1.4V15.177c-.585-1.528-4.237-2.728-5.854-2.728" transform="translate(3.911 1.842)" fill="#087854"/>
        <path id="Trazado_912907" data-name="Trazado 912907" d="M37.265,7.658a30.78,30.78,0,0,1-17.6,5.5c-.759,0-1.506-.038-2.249-.093a11.121,11.121,0,0,0-.09,1.349V18.3a12.617,12.617,0,0,0,.083,1.4c.664,5.908,5.351,12.878,11.038,12.878l.1,0V25.3a1.265,1.265,0,0,0,1.177-1.313V16.8c0-1.327,2.506-2.943,4.68-2.943,3.649,0,5.164,2.026,5.164,2.026V14.414a11.062,11.062,0,0,0-2.3-6.756" transform="translate(2.564 1.133)" fill="#96d5ca"/>
        <path id="Trazado_912908" data-name="Trazado 912908" d="M40.908,6.231a14.548,14.548,0,0,0-26.464,7.535c-.013.259-.023.521-.023.784v2.915a3.367,3.367,0,0,0,3.348,3.366h.065a12.618,12.618,0,0,1-.084-1.395V15.546a11.1,11.1,0,0,1,.091-1.348c.743.054,1.49.092,2.249.092A30.759,30.759,0,0,0,37.7,8.787l0,0a11.065,11.065,0,0,1,2.3,6.756v3.891a12.9,12.9,0,0,1-.083,1.395h.267a3.366,3.366,0,0,0,3.345-3.366V14.551a14.475,14.475,0,0,0-2.616-8.319" transform="translate(2.134 0)" fill="#12263f"/>
        <path id="Trazado_912909" data-name="Trazado 912909" d="M22.332,30.134h-.048v3.2l1.143,2.875,4.382-4.381a9.647,9.647,0,0,1-5.477-1.7" transform="translate(3.298 4.459)" fill="#fff"/>
        <path id="Trazado_912910" data-name="Trazado 912910" d="M32.608,33.337h-.023v-3.2h-.01a9.636,9.636,0,0,1-5.477,1.7l4.341,4.341Z" transform="translate(4.01 4.459)" fill="#f6eab8"/>
        <path id="Trazado_912911" data-name="Trazado 912911" d="M39.84,30.134h-5.96l.024,3.2-3.074,7.45-2.437-8.957-2.485,9.133-3.04-7.627-4.518,4.517,9.091,9.088h22.1v-7.1a9.7,9.7,0,0,0-9.7-9.705" transform="translate(2.715 4.459)" fill="#12263f"/>
        <path id="Trazado_912912" data-name="Trazado 912912" d="M22.7,30.134h-3.2l3.2,3.2Z" transform="translate(2.885 4.459)" fill="#12263f"/>
        <path id="Trazado_912913" data-name="Trazado 912913" d="M19.784,37.853,24.3,33.336l-3.2-3.2H18.346a9.7,9.7,0,0,0-9.7,9.706v7.1H28.875Z" transform="translate(1.279 4.459)" fill="#ef674f"/>
        <rect id="Rectángulo_403601" data-name="Rectángulo 403601" width="3.528" height="3.528" transform="translate(28.613 38.785) rotate(-45)" fill="#ef674f"/>
        <path id="Trazado_912914" data-name="Trazado 912914" d="M24.537,18.413h-.922a1.145,1.145,0,1,0-2.289,0H20.4a2.068,2.068,0,1,1,4.135,0" transform="translate(3.019 2.419)" fill="#12263f"/>
        <path id="Trazado_912915" data-name="Trazado 912915" d="M34.327,18.413H33.4a1.144,1.144,0,1,0-2.288,0h-.923a2.068,2.068,0,1,1,4.135,0" transform="translate(4.468 2.419)" fill="#12263f"/>
        <path id="Trazado_912916" data-name="Trazado 912916" d="M26.21,74.992,24.656,73.44v1.552h.024a4.872,4.872,0,0,0,2.371.844Z" transform="translate(3.649 10.868)" fill="#7bcd96"/>
        <path id="Trazado_912917" data-name="Trazado 912917" d="M24.656,72.549v1.023l1.554,1.552.84.844c.133.01.27.016.406.016.086,0,.172-.006.258-.009a4.895,4.895,0,0,0,2.511-.846l.01,0V72.549Z" transform="translate(3.649 10.736)" fill="#43b869"/>
        <path id="Trazado_912918" data-name="Trazado 912918" d="M29.762,65.832a4.72,4.72,0,0,0-3.01,1.712l.394,8.128c2.857-.028,5.207-3.548,5.54-6.525a6.247,6.247,0,0,0,.042-.708V67.213c-.3-.774-2.147-1.381-2.966-1.381" transform="translate(3.959 9.742)" fill="#43b869"/>
        <path id="Trazado_912919" data-name="Trazado 912919" d="M32.246,63.4a15.587,15.587,0,0,1-8.92,2.788c-.383,0-.763-.02-1.14-.046a5.563,5.563,0,0,0-.046.683V68.8a6.514,6.514,0,0,0,.044.708c.335,2.993,2.71,6.527,5.593,6.527l.052,0V72.34a.64.64,0,0,0,.595-.664v-3.64c0-.672,1.272-1.49,2.372-1.49a3.266,3.266,0,0,1,2.616,1.026v-.745A5.614,5.614,0,0,0,32.246,63.4" transform="translate(3.277 9.383)" fill="#7bcd96"/>
        <path id="Trazado_912920" data-name="Trazado 912920" d="M34.092,62.68A7.372,7.372,0,0,0,20.684,66.5c-.008.133-.013.264-.013.4v1.477a1.706,1.706,0,0,0,1.7,1.7H22.4a6.493,6.493,0,0,1-.044-.707V67.4a5.579,5.579,0,0,1,.046-.683c.377.026.757.047,1.14.047a15.6,15.6,0,0,0,8.922-2.79h0A5.614,5.614,0,0,1,33.628,67.4v1.97a6.212,6.212,0,0,1-.042.707h.137a1.7,1.7,0,0,0,1.694-1.7V66.9a7.342,7.342,0,0,0-1.325-4.217" transform="translate(3.059 8.809)" fill="#12263f"/>
        <path id="Trazado_912921" data-name="Trazado 912921" d="M24.656,74.792v1.624l.58,1.456.96,2.408,1.262-4.629a4.9,4.9,0,0,1-2.777-.86Z" transform="translate(3.649 11.068)" fill="#f6eab8"/>
        <path id="Trazado_912922" data-name="Trazado 912922" d="M29.875,76.415V74.791h0a4.88,4.88,0,0,1-2.775.861L28.33,80.19l.963-2.338.594-1.436Z" transform="translate(4.01 11.068)" fill="#f6eab8"/>
        <path id="Trazado_912923" data-name="Trazado 912923" d="M33.55,74.792H30.53l.013,1.624-1.557,3.775-1.235-4.539L26.49,80.281,24.95,76.416,22.661,78.7l4.606,4.607h11.2v-3.6a4.919,4.919,0,0,0-4.918-4.918" transform="translate(3.354 11.068)" fill="#12263f"/>
        <path id="Trazado_912924" data-name="Trazado 912924" d="M24.865,74.792H23.241l1.624,1.624Z" transform="translate(3.439 11.068)" fill="#12263f"/>
        <path id="Trazado_912925" data-name="Trazado 912925" d="M23.39,78.7l2.289-2.288-1.624-1.624H22.662a4.918,4.918,0,0,0-4.919,4.918v3.6H28Z" transform="translate(2.626 11.068)" fill="#ef674f"/>
        <rect id="Rectángulo_403602" data-name="Rectángulo 403602" width="1.788" height="1.788" transform="translate(29.84 87.985) rotate(-45.052)" fill="#ef674f"/>
        <path id="Trazado_912926" data-name="Trazado 912926" d="M8.466,66.667,6.912,65.113v1.554h.024a4.9,4.9,0,0,0,2.371.841Z" transform="translate(1.023 9.636)" fill="#7bcd96"/>
        <path id="Trazado_912927" data-name="Trazado 912927" d="M6.912,64.222v1.023L8.466,66.8l.84.841c.134.011.267.017.406.017.087,0,.172-.006.259-.009a4.891,4.891,0,0,0,2.51-.846l.01,0V64.222Z" transform="translate(1.023 9.504)" fill="#43b869"/>
        <path id="Trazado_912928" data-name="Trazado 912928" d="M12.019,57.5A4.712,4.712,0,0,0,9.01,59.219L9.4,67.344c2.857-.025,5.207-3.546,5.54-6.525a6.487,6.487,0,0,0,.042-.707V58.886c-.3-.773-2.148-1.381-2.966-1.381" transform="translate(1.333 8.51)" fill="#43b869"/>
        <path id="Trazado_912929" data-name="Trazado 912929" d="M14.5,55.078a15.587,15.587,0,0,1-8.921,2.787c-.382,0-.762-.018-1.139-.046A5.813,5.813,0,0,0,4.4,58.5v1.971a6.748,6.748,0,0,0,.042.706c.336,3,2.712,6.527,5.593,6.527h.053V64.016a.641.641,0,0,0,.595-.666V59.712c0-.673,1.271-1.491,2.372-1.491a3.272,3.272,0,0,1,2.617,1.025V58.5A5.61,5.61,0,0,0,14.5,55.078" transform="translate(0.651 8.151)" fill="#7bcd96"/>
        <path id="Trazado_912930" data-name="Trazado 912930" d="M16.349,54.355a7.372,7.372,0,0,0-13.41,3.818c-.007.132-.01.264-.01.4v1.476a1.7,1.7,0,0,0,1.7,1.7h.033a6.751,6.751,0,0,1-.042-.707v-1.97a5.56,5.56,0,0,1,.046-.682c.375.028.755.045,1.138.045a15.584,15.584,0,0,0,8.923-2.788v0a5.614,5.614,0,0,1,1.165,3.423v1.97a6.185,6.185,0,0,1-.044.707h.135a1.705,1.705,0,0,0,1.7-1.7V58.573a7.342,7.342,0,0,0-1.327-4.218" transform="translate(0.433 7.577)" fill="#12263f"/>
        <path id="Trazado_912931" data-name="Trazado 912931" d="M6.912,66.467v1.622l.58,1.458.961,2.407,1.26-4.629a4.894,4.894,0,0,1-2.777-.859Z" transform="translate(1.023 9.836)" fill="#fff"/>
        <path id="Trazado_912932" data-name="Trazado 912932" d="M12.131,68.089V66.467h0a4.887,4.887,0,0,1-2.775.859l1.234,4.54.964-2.341.592-1.436Z" transform="translate(1.384 9.836)" fill="#fff"/>
        <path id="Trazado_912933" data-name="Trazado 912933" d="M15.807,66.467H12.787l.011,1.622-1.557,3.777-1.234-4.54-1.26,4.629L7.207,68.089,4.918,70.377l4.606,4.6h11.2v-3.6a4.917,4.917,0,0,0-4.918-4.918" transform="translate(0.728 9.836)" fill="#eacf5a"/>
        <path id="Trazado_912934" data-name="Trazado 912934" d="M7.121,66.467H5.5l1.623,1.622Z" transform="translate(0.814 9.836)" fill="#eacf5a"/>
        <path id="Trazado_912935" data-name="Trazado 912935" d="M5.646,70.377l2.289-2.288L6.312,66.467H4.918A4.917,4.917,0,0,0,0,71.386v3.6H10.252Z" transform="translate(0 9.836)" fill="#f6eab8"/>
        <rect id="Rectángulo_403603" data-name="Rectángulo 403603" width="1.787" height="1.787" transform="translate(9.472 78.428) rotate(-45.052)" fill="#f6eab8"/>
        <path id="Trazado_912936" data-name="Trazado 912936" d="M43.974,66.674,42.42,65.121v1.553h.024a4.911,4.911,0,0,0,2.372.844Z" transform="translate(6.278 9.637)" fill="#7bcd96"/>
        <path id="Trazado_912937" data-name="Trazado 912937" d="M42.42,64.229v1.024l1.554,1.553.841.844c.134.009.269.016.405.016.087,0,.174-.006.261-.01a4.878,4.878,0,0,0,2.511-.847l.01,0V64.229Z" transform="translate(6.278 9.505)" fill="#43b869"/>
        <path id="Trazado_912938" data-name="Trazado 912938" d="M47.528,57.513a4.7,4.7,0,0,0-3.009,1.713l.391,8.128c2.858-.029,5.207-3.548,5.541-6.526a6.487,6.487,0,0,0,.042-.707V58.9c-.3-.775-2.149-1.382-2.966-1.382" transform="translate(6.588 8.511)" fill="#43b869"/>
        <path id="Trazado_912939" data-name="Trazado 912939" d="M50.011,55.085a15.591,15.591,0,0,1-8.919,2.787c-.386,0-.763-.02-1.139-.046a5.342,5.342,0,0,0-.047.682v1.971a6.782,6.782,0,0,0,.041.707c.336,2.994,2.713,6.526,5.594,6.526h.052v-3.69a.642.642,0,0,0,.6-.665V59.719c0-.673,1.27-1.491,2.371-1.491a3.27,3.27,0,0,1,2.617,1.026v-.746a5.6,5.6,0,0,0-1.166-3.423" transform="translate(5.906 8.152)" fill="#7bcd96"/>
        <path id="Trazado_912940" data-name="Trazado 912940" d="M51.857,54.362a7.372,7.372,0,0,0-13.41,3.818c-.007.132-.01.264-.01.4v1.476a1.705,1.705,0,0,0,1.694,1.7h.033a6.76,6.76,0,0,1-.041-.706V59.081a5.356,5.356,0,0,1,.047-.682c.375.028.753.047,1.139.047a15.577,15.577,0,0,0,8.92-2.79h0a5.6,5.6,0,0,1,1.166,3.423v1.972a6.467,6.467,0,0,1-.042.706h.137a1.706,1.706,0,0,0,1.7-1.7V58.579a7.343,7.343,0,0,0-1.327-4.217" transform="translate(5.688 7.578)" fill="#12263f"/>
        <path id="Trazado_912941" data-name="Trazado 912941" d="M42.42,66.474V68.1L43,69.554l.961,2.407,1.259-4.628a4.883,4.883,0,0,1-2.776-.86Z" transform="translate(6.278 9.837)" fill="#fff"/>
        <path id="Trazado_912942" data-name="Trazado 912942" d="M47.64,68.1V66.474h0a4.9,4.9,0,0,1-2.776.86l1.233,4.538.965-2.34L47.65,68.1Z" transform="translate(6.639 9.837)" fill="#fff"/>
        <path id="Trazado_912943" data-name="Trazado 912943" d="M51.316,66.474H48.3l.01,1.622L46.75,71.873l-1.234-4.539-1.259,4.628L42.715,68.1l-2.288,2.288,4.6,4.607h11.2v-3.6a4.919,4.919,0,0,0-4.918-4.918" transform="translate(5.983 9.837)" fill="#eacf5a"/>
        <path id="Trazado_912944" data-name="Trazado 912944" d="M42.629,66.474H41.007L42.629,68.1Z" transform="translate(6.069 9.837)" fill="#eacf5a"/>
        <path id="Trazado_912945" data-name="Trazado 912945" d="M41.155,70.384,43.443,68.1l-1.621-1.622h-1.4a4.918,4.918,0,0,0-4.917,4.918v3.6h10.25Z" transform="translate(5.255 9.837)" fill="#f6eab8"/>
        <rect id="Rectángulo_403604" data-name="Rectángulo 403604" width="1.788" height="1.788" transform="translate(50.234 78.436) rotate(-45)" fill="#f6eab8"/>
      </g>
    </g>
  </g>
</svg>
