<svg xmlns="http://www.w3.org/2000/svg" xmlns:xlink="http://www.w3.org/1999/xlink" width="60.477" height="60.314" viewBox="0 0 60.477 60.314">
  <defs>
    <clipPath id="clip-path">
      <rect id="Rectángulo_403588" data-name="Rectángulo 403588" width="60.477" height="60.314" fill="#087854" stroke="#087854" stroke-width="0.5"/>
    </clipPath>
  </defs>
  <g id="Grupo_1106891" data-name="Grupo 1106891" transform="translate(-945.018 -9969.721)">
    <g id="Grupo_1106856" data-name="Grupo 1106856" transform="translate(945.018 9969.721)">
      <g id="Grupo_1106855" data-name="Grupo 1106855" clip-path="url(#clip-path)">
        <path id="Trazado_912782" data-name="Trazado 912782" d="M121.978,6.1l-1.332-1.122A13.535,13.535,0,0,1,128.837.354c5.451-.946,10.537-.109,14.7,3.815,5.884,5.542,6.128,15.541.333,21.6a10.786,10.786,0,0,0-3.324,8.78c.048.619.007,1.244.007,1.941H125.087V31.9c-1.053,0-1.985.006-2.916,0a3.126,3.126,0,0,1-3.4-3.358,3.42,3.42,0,0,1,0-.471c.194-1.768-.078-3.076-2.161-3.716a2.939,2.939,0,0,1-1.642-4.132c1.6-3.25,2.24-6.715,2.956-10.2a20.074,20.074,0,0,1,1.455-3.521l1.357.832c-.536,1.734-1.385,3.378-1.489,5.067a21.516,21.516,0,0,1-2.387,7.671c-.723,1.588-.42,2.548,1.223,3.023,1.948.563,2.5,1.634,2.452,3.611-.091,3.469.048,3.471,3.556,3.44.859-.008,1.717,0,2.726,0v4.544h11.99c0-.6.019-1.138,0-1.677a9.949,9.949,0,0,1,3.209-7.8c4.112-4.059,5.116-8.988,3.561-14.427-1.606-5.615-6.7-9-13.2-8.987a13.368,13.368,0,0,0-10.4,4.294" transform="translate(-87.611 0.001)" fill="#087854" stroke="#087854" stroke-width="0.5"/>
        <path id="Trazado_912783" data-name="Trazado 912783" d="M22.948,132.884v4.6h-6.79v-1.677H21.2v-4.654c1.585,0,3.027.007,4.468,0,1.338-.008,1.749-.384,1.829-1.736.067-1.137.12-2.278.1-3.416a1.04,1.04,0,0,1,.809-1.21,15.275,15.275,0,0,0,1.85-.759A1.774,1.774,0,0,0,31.4,121.56a2.947,2.947,0,0,0-.213-.546,24.357,24.357,0,0,1-2.421-7.9,11.714,11.714,0,0,0-11.391-10.195,20.166,20.166,0,0,0-6.509.62C1.411,106.333-1.36,118.666,5.77,125.929c1.758,1.791,3.163,3.718,3.4,6.276.105,1.122.018,2.262.018,3.55H14.3v1.718H7.5c0-.984-.04-1.954.008-2.92a9.305,9.305,0,0,0-2.978-7.373c-6.076-6.12-6.008-16.312.008-22.065,6.326-6.049,18.125-5.347,23.316,1.388a16.328,16.328,0,0,1,3.028,8.055,20.467,20.467,0,0,0,1.012,3.684c.273.814.732,1.563,1.052,2.364.914,2.29.186,4.212-2.1,5.07a2,2,0,0,0-1.553,2.3c.227,3.878-.935,5.232-5.032,4.91-.381-.03-.766,0-1.312,0" transform="translate(0 -77.17)" fill="#087854" stroke="#087854" stroke-width="0.5"/>
        <path id="Trazado_912784" data-name="Trazado 912784" d="M53.132,143.895a4.827,4.827,0,0,1-1.87,4.007,1.83,1.83,0,0,0-.783,1.792,2.623,2.623,0,0,1-1.323,2.683,2.559,2.559,0,0,1-3.892-2.053,3.7,3.7,0,0,0-1.3-2.9,5.054,5.054,0,0,1-.639-6.286,5.285,5.285,0,0,1,9.811,2.751m-1.753,0a3.528,3.528,0,0,0-7.056-.067,3.528,3.528,0,1,0,7.056.067m-4.594,5.311a9.421,9.421,0,0,0,.65,1.586.9.9,0,0,0,.822,0,9.31,9.31,0,0,0,.634-1.585Z" transform="translate(-32.494 -105.906)" fill="#087854" stroke="#087854" stroke-width="0.5"/>
        <path id="Trazado_912785" data-name="Trazado 912785" d="M168.809,42.94a5.294,5.294,0,0,1,3.864-5.161,5.353,5.353,0,0,1,6.052,2.517,5.185,5.185,0,0,1-1.029,6.444,2.526,2.526,0,0,0-.992,2.186,2.56,2.56,0,0,1-2.646,2.8,2.592,2.592,0,0,1-2.583-2.871,2.292,2.292,0,0,0-.937-2.079,4.714,4.714,0,0,1-1.73-3.834m5.324,3.481a3.529,3.529,0,1,0-3.572-3.461,3.531,3.531,0,0,0,3.572,3.461m.995,1.815H172.98a9.9,9.9,0,0,0,.747,1.581.87.87,0,0,0,.807-.045,8.893,8.893,0,0,0,.594-1.536" transform="translate(-129.001 -28.726)" fill="#087854" stroke="#087854" stroke-width="0.5"/>
        <path id="Trazado_912786" data-name="Trazado 912786" d="M69.006,30.39,68.078,29.3l.645-.926H63.337V38.855H61.548V26.593h7.193l-.75-1.155,1.176-1.059,2.908,3.012-3.07,3" transform="translate(-47.034 -18.63)" fill="#087854" stroke="#087854" stroke-width="0.5"/>
        <path id="Trazado_912787" data-name="Trazado 912787" d="M153.628,182.619l.854,1.083-1.234,1.089-2.972-3.044,3.211-2.922.845,1.087-.634.885h5.457V170.308h1.683v12.311Z" transform="translate(-114.839 -130.147)" fill="#087854" stroke="#087854" stroke-width="0.5"/>
        <path id="Trazado_912788" data-name="Trazado 912788" d="M157.63,38.022l-1.209,1.2-1.847-1.994,1.182-1.172,1.874,1.969" transform="translate(-118.124 -27.551)" fill="#087854" stroke="#087854" stroke-width="0.5"/>
        <path id="Trazado_912789" data-name="Trazado 912789" d="M216.1,39.48l-1.231-1.19,1.956-1.893,1.2,1.183-1.92,1.9" transform="translate(-164.202 -27.814)" fill="#087854" stroke="#087854" stroke-width="0.5"/>
        <rect id="Rectángulo_403582" data-name="Rectángulo 403582" width="2.495" height="1.69" transform="translate(35.018 13.331)" fill="#087854" stroke="#087854" stroke-width="0.5"/>
        <rect id="Rectángulo_403583" data-name="Rectángulo 403583" width="2.441" height="1.669" transform="translate(52.693 13.353)" fill="#087854" stroke="#087854" stroke-width="0.5"/>
        <path id="Trazado_912790" data-name="Trazado 912790" d="M154.866,72.917l1.8-1.676.989,1.28-1.808,1.607-.985-1.211" transform="translate(-118.346 -54.441)" fill="#087854" stroke="#087854" stroke-width="0.5"/>
        <path id="Trazado_912791" data-name="Trazado 912791" d="M216.716,71.8l1.715,1.64-1.252,1.242-1.768-1.961,1.3-.922" transform="translate(-164.614 -54.872)" fill="#087854" stroke="#087854" stroke-width="0.5"/>
        <path id="Trazado_912792" data-name="Trazado 912792" d="M31.462,140.09l-1.046,1.1L28.532,139.3l1.246-.919,1.683,1.706" transform="translate(-21.804 -105.751)" fill="#087854" stroke="#087854" stroke-width="0.5"/>
        <path id="Trazado_912793" data-name="Trazado 912793" d="M90.013,140.869l-1.121-1.277,1.98-1.652.9,1.223-1.761,1.707" transform="translate(-67.93 -105.411)" fill="#087854" stroke="#087854" stroke-width="0.5"/>
        <rect id="Rectángulo_403584" data-name="Rectángulo 403584" width="2.511" height="1.655" transform="translate(5.261 37.157)" fill="#087854" stroke="#087854" stroke-width="0.5"/>
        <rect id="Rectángulo_403585" data-name="Rectángulo 403585" width="2.463" height="1.681" transform="translate(22.948 37.132)" fill="#087854" stroke="#087854" stroke-width="0.5"/>
        <path id="Trazado_912794" data-name="Trazado 912794" d="M30.172,172.061,31.25,173.3,29.327,175l-1.086-1.163,1.931-1.778" transform="translate(-21.581 -131.486)" fill="#087854" stroke="#087854" stroke-width="0.5"/>
        <path id="Trazado_912795" data-name="Trazado 912795" d="M90.563,175.4l-1.693-1.875,1.395-.909,1.575,1.811-1.276.973" transform="translate(-67.913 -131.908)" fill="#087854" stroke="#087854" stroke-width="0.5"/>
        <rect id="Rectángulo_403586" data-name="Rectángulo 403586" width="1.573" height="1.659" transform="translate(42.557 3.951)" fill="#087854" stroke="#087854" stroke-width="0.5"/>
        <rect id="Rectángulo_403587" data-name="Rectángulo 403587" width="1.599" height="1.685" transform="translate(46.059 3.918)" fill="#087854" stroke="#087854" stroke-width="0.5"/>
      </g>
    </g>
  </g>
</svg>
