<svg xmlns="http://www.w3.org/2000/svg" width="14" height="9.8" viewBox="0 0 14 9.8">
  <path id="bezier-curve-solid" d="M6.475,34.275v-1.05h1.05v1.05ZM6.3,32a1.05,1.05,0,0,0-1.05,1.05v.087H2.66a1.4,1.4,0,1,0,0,1.225H4.123A5.164,5.164,0,0,0,1.848,38.3h-.1A1.05,1.05,0,0,0,.7,39.35v1.4A1.05,1.05,0,0,0,1.75,41.8h1.4A1.05,1.05,0,0,0,4.2,40.75v-1.4A1.05,1.05,0,0,0,3.15,38.3H3.078a3.94,3.94,0,0,1,2.352-3.262A1.05,1.05,0,0,0,6.3,35.5H7.7a1.053,1.053,0,0,0,.871-.462A3.94,3.94,0,0,1,10.922,38.3H10.85A1.05,1.05,0,0,0,9.8,39.35v1.4a1.05,1.05,0,0,0,1.05,1.05h1.4a1.05,1.05,0,0,0,1.05-1.05v-1.4a1.05,1.05,0,0,0-1.05-1.05h-.1a5.158,5.158,0,0,0-2.275-3.937H11.34a1.4,1.4,0,1,0,0-1.225H8.75V33.05A1.05,1.05,0,0,0,7.7,32ZM1.925,39.525h1.05v1.05H1.925Zm9.1,1.05v-1.05h1.05v1.05Z" transform="translate(0 -32)" fill="#087854"/>
</svg>
