<svg xmlns="http://www.w3.org/2000/svg" xmlns:xlink="http://www.w3.org/1999/xlink" width="75" height="80" viewBox="0 0 75 80">
  <defs>
    <clipPath id="clip-path">
      <rect id="Rect치ngulo_403593" data-name="Rect치ngulo 403593" width="57.417" height="57.439" fill="#eacf5a"/>
    </clipPath>
  </defs>
  <g id="Grupo_1106885" data-name="Grupo 1106885" transform="translate(-763.018 -1161)">
    <path id="Rect치ngulo_403554" data-name="Rect치ngulo 403554" d="M37.5,0h0A37.5,37.5,0,0,1,75,37.5V80a0,0,0,0,1,0,0H0a0,0,0,0,1,0,0V37.5A37.5,37.5,0,0,1,37.5,0Z" transform="translate(763.018 1161)" fill="#087854"/>
    <g id="Grupo_1106866" data-name="Grupo 1106866" transform="translate(769.409 1176.568)">
      <g id="Grupo_1106865" data-name="Grupo 1106865" clip-path="url(#clip-path)">
        <path id="Trazado_912822" data-name="Trazado 912822" d="M21.315,66.732a5.373,5.373,0,0,1-.521-5.512c.748-1.921,1.412-3.875,2.181-6-2.038-.11-3.965-.255-5.892-.268-.249,0-.6.645-.74,1.048-1.717,4.873-3.392,9.761-5.11,14.634-.27.765-.372,2.012-1.619,1.573s-.544-1.467-.279-2.238C10.932,65.3,12.562,60.652,14.18,56c.128-.37.251-.741.4-1.172-.493-.191-.937-.338-1.359-.53a5.762,5.762,0,0,1-3.293-6.171c.479-2.822.98-5.641,1.466-8.461.039-.227.036-.462.07-.933-1.389.435-2.666.786-3.895,1.26-.263.1-.416.634-.514,1-.444,1.65-.832,3.315-1.274,4.966A2.927,2.927,0,1,1,.11,44.531c.583-2.394,1.208-4.778,1.8-7.17a3.175,3.175,0,0,1,1.922-2.273c2.259-.987,4.519-1.974,6.757-3.005s4.574-.868,6.92-.668c2.379.2,4.767.347,7.129.672A6.408,6.408,0,0,1,27.2,33.156a24.711,24.711,0,0,1,2.941,2.433,1.184,1.184,0,0,0,1.663.185c1.151-.706,2.356-1.329,3.556-1.951a2.937,2.937,0,0,1,4.112,1.136,2.9,2.9,0,0,1-1.307,3.973c-2,1.142-4.037,2.234-6.063,3.338a2.927,2.927,0,0,1-3.164-.122,28.889,28.889,0,0,1-2.813-1.794c-.347-.281-.369-.963-.539-1.462.526-.069,1.14-.346,1.559-.166.941.405,1.752,1.1,2.681,1.546a1.96,1.96,0,0,0,1.5.085c1.919-.961,3.781-2.037,5.664-3.07.577-.317,1.082-.789.591-1.391a1.535,1.535,0,0,0-1.423-.165c-1.474.692-2.9,1.5-4.308,2.312a1.6,1.6,0,0,1-2.153-.195c-.785-.732-1.7-1.331-2.456-2.086a6.1,6.1,0,0,0-4.32-1.889c-2.582-.085-5.157-.486-7.738-.521a11.684,11.684,0,0,0-4.046.747,60.246,60.246,0,0,0-6.1,2.7,2.588,2.588,0,0,0-1.2,1.426c-.653,2.209-1.207,4.45-1.693,6.7-.083.388.341.885.53,1.331.387-.3,1.006-.521,1.122-.9.57-1.86,1.034-3.754,1.477-5.65a2.016,2.016,0,0,1,1.581-1.7c1.8-.487,3.565-1.113,5.356-1.645,1.185-.352,1.747.157,1.543,1.385-.588,3.529-1.233,7.049-1.782,10.585a3.709,3.709,0,0,0,3.724,4.491c2.664.135,5.33.213,7.993.357,1.7.092,1.984.537,1.419,2.108-.834,2.319-1.692,4.629-2.52,6.95-.877,2.459.352,4.213,2.951,4.236.518,0,1.036-.008,1.553,0a2.338,2.338,0,0,0,2.422-.977c.685-1.034,1.9-1.13,3.137-.754a1.858,1.858,0,0,0,1.368-.155c1.821-1.139,3.614-2.329,5.36-3.579a2.1,2.1,0,0,0,.727-1.309,3.191,3.191,0,0,1,2.291-2.757,1.85,1.85,0,0,0,1.037-.89Q47.866,45.121,52.2,34.138a1.836,1.836,0,0,0-.147-1.368,2.959,2.959,0,0,1,1.235-4.255,2.892,2.892,0,0,1,3.93,1.62,2.833,2.833,0,0,1-1.995,3.823,1.5,1.5,0,0,0-1.192,1.1q-4.3,10.805-8.64,21.591a1.612,1.612,0,0,0,.125,1.729A2.726,2.726,0,0,1,45.26,61.7a3.007,3.007,0,0,1-3.247.883,2.067,2.067,0,0,0-1.472.169c-1.825,1.133-3.612,2.329-5.364,3.573a1.937,1.937,0,0,0-.681,1.216,3.06,3.06,0,0,1-2.127,2.741,3.012,3.012,0,0,1-3.254-1.2,1.741,1.741,0,0,0-1.123-.582c-1.55-.066-3.107-.078-4.656,0a2.232,2.232,0,0,0-1.4.641c-1.827,2-3.6,4.04-5.364,6.1a2.254,2.254,0,0,1-1.948.893c-1.67-.058-3.344,0-5.017-.021a4.761,4.761,0,0,1-4.75-5.884c1.19-4.945,2.515-9.858,3.794-14.782.17-.656.494-1.266,1.313-1.035.772.218.833.826.647,1.54q-1.844,7.1-3.653,14.2c-.619,2.433.582,3.963,3.109,3.964,1.589,0,3.371.393,4.71-.2,1.294-.571,2.139-2.171,3.166-3.332,1.108-1.25,2.2-2.515,3.372-3.86M55.807,31.086c-.661-.388-1.038-.782-1.387-.759-.287.019-.8.595-.75.817a1.284,1.284,0,0,0,.862.848c.311.028.667-.447,1.275-.906M44.339,59.9c-.61-.452-.942-.884-1.291-.9-.29-.012-.867.5-.84.722a1.293,1.293,0,0,0,.761.944c.305.062.712-.373,1.37-.768M32.871,67.4c-.663-.389-1.04-.784-1.387-.76-.288.021-.8.6-.75.817a1.285,1.285,0,0,0,.862.848c.311.028.667-.447,1.275-.906" transform="translate(0 -18.7)" fill="#eacf5a"/>
        <path id="Trazado_912823" data-name="Trazado 912823" d="M60.708,62.528c2.229.369,4.307.689,6.375,1.06a3.814,3.814,0,0,1,2.889,5.677c-1.636,3.272-3.339,6.51-5.015,9.763-.313.606-.724,1.149-1.486.792-.821-.384-.67-1.041-.319-1.717q2.417-4.659,4.809-9.332c.927-1.81.411-2.9-1.569-3.25-2.231-.395-4.472-.728-6.706-1.107-1.159-.2-1.454-.61-1.134-1.72.992-3.436,2.028-6.859,3.035-10.291.2-.675.5-1.246,1.31-1.038.91.234.815.963.615,1.648-.911,3.122-1.837,6.24-2.8,9.515" transform="translate(-38.69 -33.982)" fill="#eacf5a"/>
        <path id="Trazado_912824" data-name="Trazado 912824" d="M158.313,85.27q0-7.7,0-15.4a2.3,2.3,0,0,1,.065-1.055c.191-.327.605-.718.925-.72s.738.386.931.711a2.268,2.268,0,0,1,.068,1.054q0,15.4,0,30.8a2.3,2.3,0,0,1-.066,1.055c-.191.327-.605.719-.925.72s-.738-.386-.931-.712a2.276,2.276,0,0,1-.068-1.054q0-7.7,0-15.4" transform="translate(-104.808 -45.088)" fill="#eacf5a"/>
        <path id="Trazado_912825" data-name="Trazado 912825" d="M51.009,0a5.772,5.772,0,1,1-5.782,5.732A5.757,5.757,0,0,1,51.009,0m3.765,5.788a3.776,3.776,0,0,0-7.551-.093,3.776,3.776,0,1,0,7.551.093" transform="translate(-29.946 0.001)" fill="#eacf5a"/>
        <path id="Trazado_912826" data-name="Trazado 912826" d="M141.386,122.814c0-2.7.005-5.409,0-8.114,0-.729.077-1.446.994-1.451s1.006.707,1,1.44q-.009,8.114,0,16.227c0,.73-.079,1.447-.994,1.451s-1.007-.707-1-1.44c.009-2.7,0-5.409,0-8.114" transform="translate(-93.615 -74.987)" fill="#eacf5a"/>
        <path id="Trazado_912827" data-name="Trazado 912827" d="M126.407,141.63c0,1.47-.006,2.941,0,4.411,0,.717-.19,1.323-1.018,1.309s-.981-.641-.979-1.347q.013-4.412,0-8.823c0-.716.187-1.322,1.017-1.308s.986.641.98,1.347c-.011,1.47,0,2.941,0,4.411" transform="translate(-82.378 -89.966)" fill="#eacf5a"/>
        <path id="Trazado_912828" data-name="Trazado 912828" d="M109.385,150.988a16.963,16.963,0,0,1-.046,2.733c-.068.409-.621.739-.955,1.1-.328-.371-.917-.728-.939-1.116a49.577,49.577,0,0,1,0-5.475c.021-.383.621-.733.954-1.1.328.371.872.707.939,1.121a17.122,17.122,0,0,1,.044,2.733" transform="translate(-71.095 -97.424)" fill="#eacf5a"/>
        <path id="Trazado_912829" data-name="Trazado 912829" d="M73.447,155.819a7.385,7.385,0,0,1,.043-1.893c.106-.388.62-.922.948-.921a1.336,1.336,0,0,1,.94.921,20.757,20.757,0,0,1,0,3.8,1.334,1.334,0,0,1-.946.914c-.329,0-.836-.538-.942-.928a7.4,7.4,0,0,1-.042-1.893" transform="translate(-48.604 -101.311)" fill="#eacf5a"/>
        <path id="Trazado_912830" data-name="Trazado 912830" d="M92.451,160.452c-.065.785.252,1.9-1,1.9s-.991-1.1-.99-1.891-.268-1.9.98-1.9.944,1.1,1.008,1.892" transform="translate(-59.883 -104.989)" fill="#eacf5a"/>
        <path id="Trazado_912831" data-name="Trazado 912831" d="M59.13,165.129c-.653.5-1.032,1.006-1.374.983a.917.917,0,0,1-.094-1.831c.338-.056.765.415,1.467.848" transform="translate(-37.605 -108.774)" fill="#eacf5a"/>
      </g>
    </g>
  </g>
</svg>
