<svg xmlns="http://www.w3.org/2000/svg" xmlns:xlink="http://www.w3.org/1999/xlink" width="75" height="80" viewBox="0 0 75 80">
  <defs>
    <clipPath id="clip-path">
      <rect id="Rect치ngulo_403594" data-name="Rect치ngulo 403594" width="69.32" height="69.324" fill="#eacf5a"/>
    </clipPath>
  </defs>
  <g id="Grupo_1106886" data-name="Grupo 1106886" transform="translate(-1111.018 -1161)">
    <path id="Rect치ngulo_403557" data-name="Rect치ngulo 403557" d="M37.5,0h0A37.5,37.5,0,0,1,75,37.5V80a0,0,0,0,1,0,0H0a0,0,0,0,1,0,0V37.5A37.5,37.5,0,0,1,37.5,0Z" transform="translate(1111.018 1161)" fill="#087854"/>
    <g id="Grupo_1106868" data-name="Grupo 1106868" transform="translate(1114.018 1168)">
      <g id="Grupo_1106867" data-name="Grupo 1106867" clip-path="url(#clip-path)">
        <path id="Trazado_912832" data-name="Trazado 912832" d="M44.55,79.015c-4.69-5.841-4.83-11.616-.239-15.921a10.711,10.711,0,0,1,14.708,0c4.6,4.3,4.455,10.107-.4,16.122,1.6.61,3.247,1.121,4.791,1.846,4.075,1.911,7.162,4.8,7.66,9.486a94.766,94.766,0,0,1,.12,9.617c0,.876-.582,1.02-1.3,1.017-2.7-.01-5.409,0-8.113,0q-13.889,0-27.778,0c-1.831,0-1.861-.031-1.863-1.836,0-2.292.039-4.585-.009-6.875a10.759,10.759,0,0,1,5.1-9.772,71.462,71.462,0,0,1,7.325-3.678M69.54,99.456c0-2.44-.032-4.769.008-7.1a9.5,9.5,0,0,0-3.974-8.045,18.868,18.868,0,0,0-8.4-3.507,3.482,3.482,0,0,0-1.712.118A10.748,10.748,0,0,1,47.8,80.89a2.4,2.4,0,0,0-1.181-.181,19.579,19.579,0,0,0-9.037,3.731,8.71,8.71,0,0,0-3.677,6.21c-.207,2.9-.048,5.829-.048,8.806ZM51.675,61.84a9.06,9.06,0,1,0,9.055,9.092,9.072,9.072,0,0,0-9.055-9.092" transform="translate(-17.006 -31.857)" fill="#eacf5a"/>
        <path id="Trazado_912833" data-name="Trazado 912833" d="M125.495,60.1a9.7,9.7,0,1,1-9.644-9.77,9.761,9.761,0,0,1,9.644,9.77m-1.66-.106a8.029,8.029,0,1,0-7.987,8.1,8.11,8.11,0,0,0,7.987-8.1" transform="translate(-56.175 -26.646)" fill="#eacf5a"/>
        <path id="Trazado_912834" data-name="Trazado 912834" d="M53.1,9.7a9.675,9.675,0,1,1,9.671,9.7A9.663,9.663,0,0,1,53.1,9.7m17.686.024a8.01,8.01,0,1,0-8.034,8,8.025,8.025,0,0,0,8.034-8" transform="translate(-28.112 0)" fill="#eacf5a"/>
        <path id="Trazado_912835" data-name="Trazado 912835" d="M0,60.11a9.768,9.768,0,0,1,9.647-9.782,9.74,9.74,0,1,1,.087,19.48A9.771,9.771,0,0,1,0,60.11m1.662.014a8.128,8.128,0,0,0,8.085,8.022A8.078,8.078,0,1,0,9.635,51.99a8.128,8.128,0,0,0-7.974,8.134" transform="translate(0 -26.646)" fill="#eacf5a"/>
        <path id="Trazado_912836" data-name="Trazado 912836" d="M35.334,21.211a4.438,4.438,0,0,1-.858.774,26.7,26.7,0,0,0-11.1,10.533c-.184.315-.792.384-1.2.567-.057-.476-.329-1.071-.14-1.41A26.821,26.821,0,0,1,33.8,20.516c.375-.187.99.108,1.493.178l.045.517" transform="translate(-11.632 -10.83)" fill="#eacf5a"/>
        <path id="Trazado_912837" data-name="Trazado 912837" d="M98.018,19.916c.433.2.729.32,1.013.467a27.762,27.762,0,0,1,11.295,10.729c.093.157.267.329.25.477a10.333,10.333,0,0,1-.265,1.2c-.389-.136-.932-.154-1.14-.428-.8-1.054-1.434-2.234-2.237-3.286a25.5,25.5,0,0,0-8.323-7.041,4.432,4.432,0,0,1-1.052-.629.956.956,0,0,1-.231-.83c.111-.28.468-.464.689-.663" transform="translate(-51.515 -10.544)" fill="#eacf5a"/>
        <path id="Trazado_912838" data-name="Trazado 912838" d="M20.066,94.437a9.575,9.575,0,0,1,.739.878c1.557,2.36,3.119,4.718,4.626,7.111a3.519,3.519,0,0,1,.2,1.313c-.474-.076-1.194.019-1.383-.254q-2.569-3.71-4.94-7.553c-.2-.318.135-.961.221-1.454l.533-.041" transform="translate(-10.192 -49.999)" fill="#eacf5a"/>
        <path id="Trazado_912839" data-name="Trazado 912839" d="M121.284,95.028a25.737,25.737,0,0,1-5.875,8.993,1.082,1.082,0,0,1-.928-.166,1.633,1.633,0,0,1,.118-1.194c.918-1.308,1.989-2.511,2.869-3.841.728-1.1,1.229-2.347,1.917-3.476a1.611,1.611,0,0,1,1.048-.606c.313-.047.674.222.851.289" transform="translate(-60.581 -50.156)" fill="#eacf5a"/>
        <path id="Trazado_912840" data-name="Trazado 912840" d="M118.078,65.908a2.255,2.255,0,0,1-2.211-2.189,2.324,2.324,0,0,1,2.293-2.274,2.271,2.271,0,0,1,2.188,2.355,2.2,2.2,0,0,1-2.27,2.108" transform="translate(-61.346 -32.532)" fill="#eacf5a"/>
        <path id="Trazado_912841" data-name="Trazado 912841" d="M132.449,63.7a2.172,2.172,0,0,1-2.156,2.206,2.2,2.2,0,0,1-2.285-2.228,2.275,2.275,0,0,1,2.17-2.232,2.227,2.227,0,0,1,2.271,2.253" transform="translate(-67.773 -32.533)" fill="#eacf5a"/>
        <path id="Trazado_912842" data-name="Trazado 912842" d="M124.709,79.922a2.061,2.061,0,0,1-.815-.022,6.363,6.363,0,0,1-1-.738c.334-.3.623-.718,1.015-.864a2.153,2.153,0,0,1,1.351-.007,5.008,5.008,0,0,1,1.174.817c-.393.272-.774.566-1.187.8-.137.079-.359.012-.542.01" transform="translate(-65.068 -41.395)" fill="#eacf5a"/>
        <path id="Trazado_912843" data-name="Trazado 912843" d="M68.307,29.244a6.093,6.093,0,0,1-4.589-1.82c-.278-.277-.183-.928-.26-1.406.447.061,1-.026,1.325.207,2.6,1.874,4.3,1.867,6.977-.024.319-.225.876-.112,1.322-.156-.1.478-.037,1.088-.314,1.411a6.181,6.181,0,0,1-4.461,1.789" transform="translate(-33.598 -13.775)" fill="#eacf5a"/>
        <path id="Trazado_912844" data-name="Trazado 912844" d="M67.367,13.356a2.242,2.242,0,0,1-2.325,2.2A2.186,2.186,0,0,1,62.9,13.337a2.223,2.223,0,0,1,2.3-2.221,2.3,2.3,0,0,1,2.17,2.24" transform="translate(-33.301 -5.885)" fill="#eacf5a"/>
        <path id="Trazado_912845" data-name="Trazado 912845" d="M79.375,13.3a2.179,2.179,0,0,1-2.1,2.261A2.244,2.244,0,0,1,74.91,13.4a2.29,2.29,0,0,1,2.266-2.283,2.22,2.22,0,0,1,2.2,2.183" transform="translate(-39.661 -5.884)" fill="#eacf5a"/>
        <path id="Trazado_912846" data-name="Trazado 912846" d="M15.279,75.936a6.173,6.173,0,0,1,4.564,1.888c.263.27.2.85.294,1.286-.443-.011-1,.148-1.309-.061-2.97-2.022-4.153-2.021-7.192.029-.292.2-.8.074-1.211.1.05-.439-.056-1,.175-1.3a6.259,6.259,0,0,1,4.679-1.944" transform="translate(-5.519 -40.204)" fill="#eacf5a"/>
        <path id="Trazado_912847" data-name="Trazado 912847" d="M12.22,61.471a2.27,2.27,0,0,1,2.112,2.394,2.223,2.223,0,0,1-4.44-.219,2.249,2.249,0,0,1,2.327-2.174" transform="translate(-5.237 -32.544)" fill="#eacf5a"/>
        <path id="Trazado_912848" data-name="Trazado 912848" d="M24.265,65.957a2.2,2.2,0,0,1-2.244-2.243,2.257,2.257,0,0,1,2.129-2.24,2.324,2.324,0,0,1,2.339,2.194,2.259,2.259,0,0,1-2.223,2.289" transform="translate(-11.659 -32.546)" fill="#eacf5a"/>
        <path id="Trazado_912849" data-name="Trazado 912849" d="M67.372,15.027a.439.439,0,1,1-.439-.439.438.438,0,0,1,.439.439" transform="translate(-35.205 -7.724)" fill="#12263f"/>
        <path id="Trazado_912850" data-name="Trazado 912850" d="M79.6,15.027a.439.439,0,1,1-.439-.439.438.438,0,0,1,.439.439" transform="translate(-41.68 -7.724)" fill="#12263f"/>
        <path id="Trazado_912851" data-name="Trazado 912851" d="M14.517,65.745a.439.439,0,1,1-.439-.439.438.438,0,0,1,.439.439" transform="translate(-7.222 -34.576)" fill="#12263f"/>
        <path id="Trazado_912852" data-name="Trazado 912852" d="M26.744,65.745a.439.439,0,1,1-.439-.439.438.438,0,0,1,.439.439" transform="translate(-13.695 -34.576)" fill="#12263f"/>
        <path id="Trazado_912853" data-name="Trazado 912853" d="M120.491,65.745a.439.439,0,1,1-.439-.439.438.438,0,0,1,.439.439" transform="translate(-63.329 -34.576)" fill="#12263f"/>
        <path id="Trazado_912854" data-name="Trazado 912854" d="M132.719,65.745a.439.439,0,1,1-.439-.439.438.438,0,0,1,.439.439" transform="translate(-69.803 -34.576)" fill="#12263f"/>
      </g>
    </g>
  </g>
</svg>
