<svg xmlns="http://www.w3.org/2000/svg" xmlns:xlink="http://www.w3.org/1999/xlink" width="75" height="80" viewBox="0 0 75 80">
  <defs>
    <clipPath id="clip-path">
      <rect id="Rect치ngulo_403595" data-name="Rect치ngulo 403595" width="59.363" height="59.282" fill="#eacf5a"/>
    </clipPath>
  </defs>
  <g id="Grupo_1106887" data-name="Grupo 1106887" transform="translate(-763.018 -1494)">
    <path id="Rect치ngulo_403556" data-name="Rect치ngulo 403556" d="M37.5,0h0A37.5,37.5,0,0,1,75,37.5V80a0,0,0,0,1,0,0H0a0,0,0,0,1,0,0V37.5A37.5,37.5,0,0,1,37.5,0Z" transform="translate(763.018 1494)" fill="#087854"/>
    <g id="Grupo_1106870" data-name="Grupo 1106870" transform="translate(770.836 1509.04)">
      <g id="Grupo_1106869" data-name="Grupo 1106869" clip-path="url(#clip-path)">
        <path id="Trazado_912855" data-name="Trazado 912855" d="M16.051,113.309a6.152,6.152,0,0,0-1.017.338,6.941,6.941,0,0,1-6.534.044,2.578,2.578,0,0,0-1.639-.154c-5.722,1.508-5.068.745-5.1,6.457a12.118,12.118,0,0,1-.077,2.21,1.183,1.183,0,0,1-.845.767,1.132,1.132,0,0,1-.776-.807,55.218,55.218,0,0,1,.067-6.5,3.463,3.463,0,0,1,2.808-2.918c1.468-.421,2.955-.774,4.417-1.214,1.286-.387,1.437-.924.5-1.819a6.085,6.085,0,0,1-1.929-4.775c.043-1.923-.01-3.848.016-5.772A3.735,3.735,0,0,1,9.866,95.12c1.973-.044,3.948.01,5.922-.019,1.236-.018,1.8.51,1.789,1.773-.035,2.861-.008,5.723-.019,8.584a5.626,5.626,0,0,1-1.981,4.3c-.862.779-.685,1.355.339,1.716a3.854,3.854,0,0,0,2.956.04,52.585,52.585,0,0,1,5.535-1.579c1.825-.513,2.036-1.3.7-2.579a6.762,6.762,0,0,1-2.122-5.034c-.022-2.368-.049-4.737.006-7.1a4.354,4.354,0,0,1,4.655-4.63c2.22-.051,4.442-.036,6.662,0,1.555.024,2.051.51,2.066,2.065q.046,4.884,0,9.768a6.786,6.786,0,0,1-2.4,5.207c-.932.826-.792,1.7.379,2.088,2.38.787,4.77,1.574,7.206,2.15a4.117,4.117,0,0,0,2.352-.655,1.423,1.423,0,0,0-.007-1.282,6.736,6.736,0,0,1-2.121-5.746c.073-1.724-.012-3.453.024-5.179a3.711,3.711,0,0,1,3.794-3.872c2.071-.056,4.145-.01,6.218-.017a1.415,1.415,0,0,1,1.612,1.637c-.019,3.009.17,6.036-.108,9.02a9.163,9.163,0,0,1-1.825,3.878c-.719,1.066-.766,1.5.465,1.871,1.413.431,2.853.77,4.275,1.175a3.839,3.839,0,0,1,3.113,4.1c.02,1.677.054,3.357-.033,5.03-.022.417-.484.811-.744,1.216-.322-.406-.888-.792-.922-1.221-.117-1.471-.043-2.957-.049-4.437-.009-2.2-.316-2.592-2.473-3.18-.475-.13-.963-.219-1.43-.374a4.378,4.378,0,0,0-3.63.152,6.141,6.141,0,0,1-5.571-.231c-.4-.2-.834-.339-1.184-.479,0,2.768.02,5.353-.013,7.938-.009.716.338,1.833-.9,1.784-1.181-.046-.822-1.146-.838-1.867-.041-1.726,0-3.453-.017-5.18-.017-1.822-.576-2.534-2.368-3.056-.662-.193-1.344-.327-1.992-.556a5.755,5.755,0,0,0-4.9.168c-2,1.01-4.212.626-6.283-.374a3.544,3.544,0,0,0-2.055-.247c-1.352.249-2.667.7-4,1.066a2.634,2.634,0,0,0-2.13,2.8c.012,1.973.061,3.95-.043,5.918-.025.471-.59.912-.907,1.367-.271-.445-.764-.885-.776-1.337-.074-2.7-.036-5.4-.036-8.386m18.615-12.99c-2.124-.547-3.873-1.082-5.659-1.424a16.369,16.369,0,0,0-3.447-.16c-.281.007-.8.453-.787.672a21.517,21.517,0,0,0,.552,5.223c.643,2.015,2.855,2.98,5.071,2.71a4.679,4.679,0,0,0,4.039-3.774,25.254,25.254,0,0,0,.23-3.246m-.123-2.166V92.309c-2.146,0-4.2-.005-6.255,0-2.992.009-4.206,1.7-3.273,4.7,2.037-.69,3.891-.115,5.811.7a13.289,13.289,0,0,0,3.717.438m-18.788,5.5c-1.832-.51-3.38-.876-4.883-1.375-2.155-.716-3.187-.091-3.18,2.045a14.329,14.329,0,0,0,.051,1.619,3.963,3.963,0,0,0,3.933,3.478,3.951,3.951,0,0,0,4.06-3.332,17.34,17.34,0,0,0,.02-2.436m35.873.008c-1.858-.52-3.444-.915-5-1.41-2.111-.672-3.086-.063-3.082,2.022,0,.491-.013.985.027,1.473a4.043,4.043,0,0,0,8.042.1,21.326,21.326,0,0,0,.012-2.188m-.043-6.818c-1.777,0-3.393-.007-5.01,0-2.683.013-3.347.845-2.929,3.226l7.939,1.589ZM7.788,100c1.765.429,3.328.838,4.907,1.178a9.273,9.273,0,0,0,2.3.241,1.117,1.117,0,0,0,.772-.768c.087-1.207.037-2.424.037-3.811-1.809,0-3.462-.007-5.114,0-2.627.014-3.366.964-2.9,3.157m24.537,10.625-.772-1.539H27.763l-.707,1.6a6.238,6.238,0,0,0,5.268-.059M9.653,111.819l.2.61h3.963c-.563-1.228-.564-1.267-2.733-1.232a4.2,4.2,0,0,0-1.428.622m35.864.063.219.543H49.63c-.476-2.062-1.9-1.021-2.838-1.216-.363-.075-.846.431-1.275.673" transform="translate(0 -63.754)" fill="#eacf5a"/>
        <path id="Trazado_912856" data-name="Trazado 912856" d="M23.785,17.931c0,.707.026,1.488-.005,2.266A2.849,2.849,0,0,1,20.9,23.128a11.946,11.946,0,0,1-2.071,0,5.318,5.318,0,0,0-5.414,2.093,1.5,1.5,0,0,1-2.626-.028C9.4,23.279,7.548,23.042,5.36,23.1c-5.024.131-5.332-.266-5.332-5.33,0-2.96-.007-5.92,0-8.879C.039,6.36,1,5.382,3.5,5.376c3.838-.009,7.676,0,11.686,0,0-.89-.026-1.665.005-2.438A2.749,2.749,0,0,1,18.062.022Q29.682-.022,41.3.02A2.755,2.755,0,0,1,44.2,2.912c.035.773.006,1.549.006,2.462,3.842,0,7.53,0,11.218,0,3.122,0,3.94.818,3.942,3.936,0,3.453.009,6.906,0,10.359-.009,2.484-1.008,3.453-3.531,3.47a14.418,14.418,0,0,1-1.923-.012,5.151,5.151,0,0,0-5.284,2.053,1.554,1.554,0,0,1-2.736-.049c-1.286-1.73-2.933-2.1-5-2.037-4.837.141-4.976-.085-5.362-5.221-1.823-.18-3.524-.453-5,1.315-1.655,1.978-1.994,1.849-3.884,0-.742-.727-1.328-1.842-2.847-1.255m5.134.621c.183-.224.447-.519.682-.836a4.357,4.357,0,0,1,4.118-1.744c2.36.135,4.734.021,7.1.038,1.09.008,1.635-.427,1.626-1.581q-.041-5.547,0-11.095c.01-1.144-.472-1.59-1.593-1.587q-11.173.026-22.345,0c-1.137,0-1.587.479-1.571,1.608.038,2.712-.008,5.424.016,8.136.045,5.071-.712,4.571,4.443,4.48,2.737-.048,5.335-.088,7.079,2.5.034.05.167.033.44.078M21.9,17.759c-1.012,0-1.942,0-2.872,0-2.9-.008-3.84-.935-3.844-3.79,0-2.248,0-4.5,0-6.824-4.151,0-8.093.008-12.036-.006-1.038,0-1.375.547-1.372,1.491q.016,5.623,0,11.247c0,1.058.468,1.551,1.528,1.5.443-.021.888.011,1.332,0,2.824-.1,5.732-.45,7.436,3.03,1.633-2.891,3.985-3.364,6.653-3.03a2.406,2.406,0,0,0,.3,0c3.165,0,3.246-.094,2.88-3.615m25.334,6.623c.527-.655.788-.954,1.021-1.273a4.328,4.328,0,0,1,4.267-1.757c1.222.117,2.465.013,3.7.022A1.193,1.193,0,0,0,57.6,20.036q0-5.771,0-11.542c0-1.024-.545-1.376-1.5-1.358-1.48.028-2.96.007-4.441.007H44.2c0,2.493.008,4.8,0,7.111-.011,2.448-1.056,3.479-3.537,3.5-1.067.011-2.134,0-3.3,0,0,.792.031,1.378-.006,1.959-.078,1.207.467,1.744,1.666,1.66.344-.024.691.011,1.036-.005,2.754-.13,5.521-.3,7.175,3.01" transform="translate(-0.018 0)" fill="#eacf5a"/>
        <path id="Trazado_912857" data-name="Trazado 912857" d="M73.622,183.191a11.01,11.01,0,0,1-.039,2.061c-.062.32-.534.561-.82.838-.272-.289-.762-.566-.779-.869a36.367,36.367,0,0,1,.007-4.281c.018-.291.527-.553.81-.827.276.287.735.544.79.869a13.506,13.506,0,0,1,.037,2.21h-.006" transform="translate(-50.64 -126.811)" fill="#eacf5a"/>
        <path id="Trazado_912858" data-name="Trazado 912858" d="M124.509,183.175a11.383,11.383,0,0,1-.039,2.061c-.06.321-.521.567-.8.847-.279-.285-.78-.557-.8-.857a35.86,35.86,0,0,1,0-4.28c.018-.3.528-.561.812-.84.276.284.736.538.789.86a13.413,13.413,0,0,1,.036,2.21" transform="translate(-86.465 -126.806)" fill="#eacf5a"/>
        <path id="Trazado_912859" data-name="Trazado 912859" d="M15.029,184.976a7.846,7.846,0,0,1,.036-1.76c.078-.329.524-.806.788-.8a1.157,1.157,0,0,1,.838.769,23.766,23.766,0,0,1,.005,3.675c-.023.3-.532.567-.818.85-.286-.323-.728-.607-.822-.979a7.3,7.3,0,0,1-.037-1.759h.009" transform="translate(-10.549 -128.436)" fill="#eacf5a"/>
        <path id="Trazado_912860" data-name="Trazado 912860" d="M181.338,185.034a8.27,8.27,0,0,1-.033,1.761c-.076.342-.471.837-.746.852a1.139,1.139,0,0,1-.879-.711,25.364,25.364,0,0,1,0-3.82,1.14,1.14,0,0,1,.884-.706c.275.018.662.518.738.863a8.388,8.388,0,0,1,.034,1.761" transform="translate(-126.457 -128.428)" fill="#eacf5a"/>
        <path id="Trazado_912861" data-name="Trazado 912861" d="M78.488,18.156c2.563,0,5.126-.006,7.689,0,.673,0,1.586-.125,1.461.9-.042.341-.9.825-1.385.83q-7.762.091-15.525,0c-.489-.006-1.345-.488-1.388-.829-.127-1.021.785-.9,1.459-.9,2.563-.01,5.126,0,7.689,0" transform="translate(-48.812 -12.782)" fill="#eacf5a"/>
        <path id="Trazado_912862" data-name="Trazado 912862" d="M78.49,35.833c2.557,0,5.115-.01,7.672.007.658,0,1.584-.146,1.484.874-.032.323-.906.8-1.4.8q-7.745.088-15.49,0c-.5-.006-1.372-.469-1.409-.795-.115-1.025.812-.879,1.471-.884,2.557-.017,5.115-.007,7.672-.007" transform="translate(-48.818 -25.227)" fill="#eacf5a"/>
        <path id="Trazado_912863" data-name="Trazado 912863" d="M22,54.069c.986,0,1.979-.064,2.956.032.344.034.651.454.975.7-.3.331-.585.936-.9.948-2.117.082-4.24.072-6.357,0a1.163,1.163,0,0,1-.759-.862c0-.269.511-.745.829-.774,1.076-.1,2.167-.037,3.252-.038" transform="translate(-12.619 -38.053)" fill="#eacf5a"/>
        <path id="Trazado_912864" data-name="Trazado 912864" d="M21.749,38.012a26.659,26.659,0,0,1-2.956-.036c-.382-.043-.719-.491-1.077-.755.358-.32.7-.9,1.076-.918,1.969-.092,3.947-.092,5.916,0,.376.018.724.6,1.085.922-.361.262-.7.706-1.088.748a27.023,27.023,0,0,1-2.956.036" transform="translate(-12.473 -25.512)" fill="#eacf5a"/>
        <path id="Trazado_912865" data-name="Trazado 912865" d="M159.668,54.029a26.149,26.149,0,0,1,2.955.04c.365.042.679.52,1.017.8-.328.3-.646.845-.986.858-2.019.082-4.045.082-6.063,0-.351-.014-.682-.544-1.022-.836.38-.288.735-.773,1.144-.824a23.457,23.457,0,0,1,2.955-.038" transform="translate(-109.531 -38.02)" fill="#eacf5a"/>
        <path id="Trazado_912866" data-name="Trazado 912866" d="M159.6,38.011a27.032,27.032,0,0,1-2.956-.036c-.386-.043-.727-.487-1.088-.749.361-.322.71-.9,1.086-.922,1.969-.094,3.947-.094,5.916,0,.372.017.718.6,1.076.919-.358.264-.695.712-1.077.755a26.667,26.667,0,0,1-2.956.036" transform="translate(-109.521 -25.511)" fill="#eacf5a"/>
      </g>
    </g>
  </g>
</svg>
